<?xml version="1.0" standalone="no"?><!DOCTYPE svg PUBLIC "-//W3C//DTD SVG 1.1//EN" "http://www.w3.org/Graphics/SVG/1.1/DTD/svg11.dtd"><svg width="100%" height="100%" viewBox="0 0 960 600" version="1.1" xmlns="http://www.w3.org/2000/svg" xmlns:xlink="http://www.w3.org/1999/xlink" xml:space="preserve" style="fill-rule:evenodd;clip-rule:evenodd;stroke-linejoin:round;stroke-miterlimit:1.41421;"><g id="bg"><rect id="Rectangle-9" x="0" y="0" width="960" height="334" style="fill:#bacff9;"/><path id="Fill-1" d="M817.785,168.798l-15.416,0.004l-2.499,0.338l-0.071,0.332l0.006,1.255l-0.29,0.037l-0.065,0.315l0.175,53.258l-7.389,0l-3.565,0.04l0.013,16.136l-4.701,0l0.335,-103.456l-0.232,-0.324l-0.581,-0.305l-0.905,-0.262l-1.156,-0.202l-1.336,-0.126l-1.415,-0.044l-30.444,0.011l-1.383,0.043l-1.24,0.128l-1.013,0.204l-0.711,0.262l-0.368,0.304l-1.059,84.898l-9.849,-0.951l-0.007,-0.76l-3.487,0.05l-0.007,-0.087l-0.523,-0.002l-0.865,0.006l-1.15,0.014l-1.356,0.021l-0.381,0.007l-1.253,-0.12l-0.291,-38.062l-0.426,-0.002l-0.039,-4.705l-0.846,-0.016l-3.778,0.005l-0.232,-32.889l-0.032,-5.156l-0.013,-1.132l-0.93,-0.116l-22.798,0.162l-0.988,0.131l0,1.128l0.019,5.136l0.097,32.216l-0.472,-0.009l-4.378,-0.058l-5.109,-0.036l-1.66,-0.003l0.2,-22.04l-3.597,-0.383l-34.313,0.162l0.245,-54.468l-0.362,-0.611l0.004,-1.329l0.01,-1.877l0.007,-1.985l-3.377,-6.04l-0.943,-0.204l-24.427,0.37l-1.947,0.977l-0.802,1.123l-0.019,2.068l-0.019,1.969l-0.013,1.461l-0.372,0.492l-0.015,1.579l-1.002,104.599l-4.734,-8.702l-0.127,-19.105l-0.721,-11.111l-0.164,-25.454l-1.29,-0.222l-0.015,0l-0.01,-1.277l-1.42,-0.259l-0.152,-0.002l-0.007,-1.293l-1.424,-0.265l-0.139,0l-0.008,-1.156l-1.42,-0.269l-0.13,0l-0.005,-1.379l-1.423,-0.274l-5.66,-0.003l-1.47,0.274l0.003,1.38l-0.028,0l-1.471,0.269l0.002,1.155l-0.039,0l-1.472,0.265l0.003,1.292l-0.05,0l-1.474,0.26l0.003,1.316l-0.179,0l-1.326,0.229l0.017,25.441l-0.661,11.105l0.012,26.451l-1.689,5.024l-0.902,0.022l0,0.158l-1.881,0.047l-0.003,0.169l-2.103,0.069l0,0.183l-1.333,0.028l-0.127,-67.57l-0.044,-23.528l-13.741,-2.744l-0.384,4.625l0.198,59.541l-7.25,0.111l-0.02,-1.807l0.027,-0.018l-0.049,-4.236l0.26,-0.005l0.372,-0.022l0.329,-0.033l0.261,-0.043l0.179,-0.052l0.079,-0.055l-0.318,-26.312l-0.003,-0.008l-0.019,-0.072l-0.126,-0.073l-0.213,-0.064l-0.294,-0.049l-0.35,-0.031l-0.385,-0.01l-0.107,0.003l-0.064,0.001l-0.093,0.002l-10.968,-20.551l-11.355,0.077l-10.709,20.655l-0.095,-0.004l-0.059,-0.001l-0.017,0l-0.387,0.01l-0.357,0.031l-0.306,0.049l-0.233,0.063l-0.145,0.074l-0.044,0.079l-0.073,26.256l0.056,0.056l0.157,0.051l0.242,0.044l0.316,0.033l0.362,0.022l0.224,0.004l-0.008,4.22l0.049,0.046l0.098,0.029l-0.102,48.063l-2.57,0.029l-0.021,16.982l-2.014,0l0.005,-1.528l-0.911,-0.002l-0.006,-36.363l0.917,-0.002l-0.008,-44.362l-1.869,-0.296l-0.002,-15.001l-2.109,-0.45l-0.14,-0.107l-0.186,-0.105l-0.232,-0.101l-0.28,-0.095l-0.318,-0.092l-0.36,-0.083l-0.397,-0.077l-0.431,-0.07l-0.458,-0.061l-0.485,-0.052l-0.507,-0.042l-0.524,-0.034l-2.207,-0.469l-2.177,0.46l-0.522,0.03l-0.505,0.039l-0.48,0.051l-0.455,0.058l-0.426,0.068l-0.392,0.075l-0.356,0.084l-0.313,0.088l-0.272,0.095l-0.225,0.1l-0.182,0.104l-0.131,0.107l-2.082,0.439l-0.006,15.007l-1.871,0.296l-0.02,44.397l0.861,0.001l-0.015,36.321l-4.157,-0.008l0.064,-29.736l-10.079,-0.292l-1.435,0.102l-0.003,1.746l-0.076,-0.025l-2.66,-0.089l-1.908,0.105l0.008,-6.969l-1.318,-0.009l0.007,-8.579l-1.712,-0.036l-0.127,-0.009l-0.167,-0.008l-0.201,-0.009l-0.237,-0.008l-0.267,-0.007l-0.297,-0.007l-0.322,-0.007l-0.343,-0.006l-0.365,-0.004l-0.377,-0.004l-0.388,-0.002l-0.392,-0.004l-1.77,-0.037l-1.309,0.037l-0.002,-4.49l-2.596,-0.219l-3.172,0.17l0.005,7.658l0,0.001l-1.201,0.055l0.008,7.789l-1.266,0.047l0.005,3.393l-0.346,-0.002l-0.522,0.003l-0.474,0.01l-0.108,0.003l0.004,-3.031l-2.025,-0.101l0.002,-2.865l-0.418,-0.022l-2.198,0.109l-0.014,-14.178l-10.292,0.569l0.024,16.395l-0.994,0.046l-0.011,34.097l-0.117,0l0.005,-12.349l-4.726,-0.016l-0.086,-21.07l-2.357,-11.541l-0.129,-38.051l-1.191,-3.202l-0.108,-35.168l-1.038,-2.183l-1.053,-0.163l-0.003,-1.4l-0.002,-0.318l-0.74,-0.117l-0.002,-1.377l0,-0.315l-1.081,-0.175l-0.004,-2.365l0,-0.291l-0.946,-0.159l-10.263,0.018l-0.937,0.16l0,0.291l-0.006,2.363l-1.082,0.179l0,0.315l-0.005,1.373l-0.688,0.113l0,0.316l-0.003,1.4l-1.056,0.165l-1.052,2.185l-0.104,35.159l-1.178,3.202l-0.105,32.722l-0.21,-0.016l-0.003,0l0,-0.638l-0.235,-0.02l-3.076,-0.03l-0.25,0.014l-0.086,0.208l0,0.437l-0.446,0.025l-0.093,0.237l0,0.368l-0.36,0.02l-0.1,0.258l0,0.364l-0.409,0.023l-0.11,0.283l0,0.604l-0.407,0.021l-0.118,0.306l0.015,17.984l-0.252,1.996l-0.211,-51.227l-0.012,-3.128l-0.032,-7.438l-0.083,0l-0.01,-2.848l-0.024,-5.529l-9.377,-0.034l-0.21,-0.613l-1.185,-0.004l0.004,0.612l-8.146,-0.029l-0.48,-0.616l-1.215,-0.005l0.005,0.614l-8.901,-0.032l0.064,5.558l0.032,2.859l-0.765,-0.003l0.086,7.479l0.037,3.145l0.424,36.714l-11.062,-0.189l-0.597,0.109l0,2.653l-0.245,-0.004l-6.498,0.961l0,7.47l-4.423,-0.646l-3.454,0.047l-0.081,-16.684l-0.032,-0.045l-0.017,-35.964l-2.582,-3.627l-0.071,-0.003l0,-2.89l-0.352,-0.513l-30.23,0.861l0,67.774l-3.23,0.068l0.008,1.023l-4.608,-2.365l-0.196,-115.35l-0.957,-0.85l-2.278,-0.785l-3.473,-0.66l-4.439,-0.482l-5.082,-0.265l-2.403,-0.009l-0.002,-9.697l-1.063,-8.071l-5.215,0.189l-4.769,0.475l-3.963,0.718l-2.885,0.903l-1.624,1.017l-0.294,1.057l-0.022,16.923l-0.166,131.991l-0.975,0.099l-1.249,0.211l-0.184,-23.772l-0.488,-4.404l-0.575,-3.938l-0.615,-2.961l-0.757,-1.97l-0.727,-1.382l-4.59,-0.376l-2.023,0.069l-0.713,1.362l-0.735,1.957l-0.572,2.962l-0.466,3.518l-0.209,-39.85l-0.073,-2.855l-0.007,-0.325l-0.025,-0.433l-0.144,-2.738l-0.255,-3.163l-0.338,-3.152l-0.423,-3.138l-0.507,-3.125l-0.593,-3.109l-0.674,-3.093l-0.757,-3.073l-0.84,-3.054l-0.92,-3.032l-0.792,-2.37l0.064,-0.195l0.237,-0.754l0.115,-0.368l0.022,-0.082l0.015,-0.08l-0.673,-0.003l-0.049,-0.729l-0.069,-0.834l-0.081,-0.832l-0.095,-0.832l-0.111,-0.829l-0.122,-0.829l-0.135,-0.827l-0.149,-0.824l-0.164,-0.822l-0.174,-0.82l-0.191,-0.818l-0.201,-0.815l-21.241,-0.096l-0.203,0.815l-0.189,0.817l-0.176,0.82l-0.164,0.821l-0.149,0.824l-0.137,0.826l-0.125,0.829l-0.108,0.829l-0.098,0.833l-0.081,0.833l-0.071,0.833l-0.049,0.731l-0.644,-0.003l0.12,2.357l-0.49,1.496l-0.473,1.512l-0.453,1.518l-0.43,1.523l-0.415,1.529l-0.389,1.534l-0.37,1.54l-0.35,1.545l-0.331,1.55l-0.306,1.552l-0.286,1.559l-0.513,3.128l-0.426,3.142l-0.343,3.157l-0.257,3.168l-0.169,3.177l-0.022,0.841l-0.063,2.344l-0.211,37.004l-6.248,-0.201l0.443,-99.122l0.057,-12.649l-44.267,-0.476l-0.027,1.565l0.1,12.433l0.796,97.779l-1.487,-0.003l0.003,-5.255l-0.027,-0.02l-0.059,-0.018l-0.09,-0.018l-0.123,-0.018l-2.26,-0.046l0,-4.88l-0.018,-0.058l-0.068,-0.058l-0.12,-0.058l-0.177,-0.059l-0.23,-0.059l-2.415,-0.102l-0.007,-3.818l-0.01,-0.109l-0.059,-0.111l-0.106,-0.114l-0.153,-0.115l-0.206,-0.116l-8.93,-0.541l0,-0.419l0.004,-0.021l0.005,-0.127l0,-0.223l0.003,-0.304l-0.003,-0.365l0,-0.4l-0.005,-0.411l-0.002,-0.393l-0.005,-0.348l-0.005,-0.281l-0.005,-0.194l-0.005,-0.093l-0.272,-0.001l-0.186,-1.463l-6.569,-0.016l0.045,5.036l-8.728,0.52l-0.056,0.117l-0.02,0.114l0.055,4.145l-2.761,0.115l-0.076,0.06l-0.039,0.058l0,0.059l0.069,5.005l-2.648,0.053l-0.113,0.017l-0.076,0.019l-0.037,0.019l-0.002,0.018l0.081,5.28l-1.879,0.005l-0.397,0.002l-0.153,0.001l-0.128,0.002l-0.098,0l-0.069,0.002l-0.037,0.001l-0.004,0.001l0.098,5.97l-2.337,0.056l0.527,30.566l-3.204,0.483l0.044,2.362l-7.306,0l0,219.902l707.832,0l0,-291.042l-3.714,-0.575Z" style="fill:url(#_Linear1);"/><path id="Fill-2" d="M928.666,294.508l0,-8.461l-2.034,-32.978l-3.249,0l0,-5.945l-13.53,0l0,-2.34l-5.774,0l0,2.34l-9.455,0l0,-9.346l-14.847,0l0,-2.031l-23.58,0l0,-36.357l-6.652,0l-3.41,-0.443l-0.885,-1.542l-4.566,0.773l-1.427,-1.928l-0.936,2.697l-3.191,-0.825l-2.531,0.825l0,-1.981l-0.775,1.981l-5.115,0l-5.09,0.443l0,55.067c-1.007,-0.005 -2.015,-0.008 -3.035,-0.008c-0.691,0 -2.06,-37.729 -2.06,-37.729l-6.833,0l-8.435,1.238l0,1.444l-5.567,0l0,2.783l-2.163,10.42l-4.851,0l0,8.666l0.924,13.884c-1.886,0.103 -3.655,0.217 -5.296,0.339l0,-6.318l-1.317,-5.782l-1.124,-2.827l-6.471,-9.344l-7.382,8.218l-0.795,3.953l-1.414,5.782l-2.693,2.053l-2.874,0l0,-1.381l-3.823,0l-2.829,-1.328l-3.165,1.328l0,-4.982l-6.82,0l-6.155,-0.83l-4.992,0.83l0,4.982l-5.108,0l0,-22.047l0.833,-1.322l0,-6.093l-3.023,-0.528l3.191,-0.042l-1.654,-2.094l-0.129,-2.846l-0.084,1.831l-0.775,2.448l-0.549,-7.028l-0.135,-2.029l-0.297,-1.58l-0.007,-1.363l-0.497,-3.343l-0.743,2.797l-1.576,1.346l0,-4.014l-0.342,-10.368l-0.194,-1.491l-0.181,-1.96l-0.025,-1.615l-0.22,-1.79l-0.142,1.378l-0.071,1.391l-0.485,-2.907l-0.245,-1.587c-0.058,-1.662 -0.833,-3.086 -1.931,-3.708l-0.09,-3.731c-0.543,-1.534 -0.724,-1.816 -0.93,-1.933l-0.059,-1.857l-0.064,-2.214c0.788,-1.301 0.943,-1.67 0.529,-1.781c-0.458,-0.481 -0.62,-1.446 -0.62,-1.446c-0.607,1.24 -0.051,1.716 -0.051,1.716c-0.62,1.326 -0.465,1.434 -0.226,1.522c0.051,0.02 0.135,1.51 0.135,1.51l-0.071,2.549c-0.775,0.947 -0.968,1.196 -1.046,1.487l0.116,3.313c-1.194,1.485 -1.969,2.91 -1.969,4.563l-0.504,1.597l0.206,2.907l-0.561,-1.392l-0.143,-1.377l-0.142,1.38l-0.071,1.389l-0.025,2.596l-0.381,1.491l0,9.491l-0.336,4.891l-1.169,-1.346l-0.685,-2.797l-0.743,2.797l-0.529,1.346l0.303,2.143l-0.432,2.029l0,7.42l-1.279,-1.823l-0.129,-2.848l-0.091,1.831l-0.775,2.448l-0.755,7.139l0.833,1.507l0.006,41.149l-3.965,0l0,-33.715l-10.314,0l0,19.541l-1.731,9.356l-1.098,-1.826l-5.825,0l0.019,-1.992l-2.144,-1.286l2.144,-1.286l-2.144,-1.286l2.144,-1.285l-2.144,-1.29l2.144,-1.284l-2.144,-1.286l2.144,-1.288l-2.144,-1.286l2.144,-1.286l-2.144,-1.289l2.144,-1.283l-2.144,-1.287l2.144,-1.286l-2.144,-1.288l2.144,-1.286l-2.144,-1.286l2.144,-1.287l-2.144,-1.286l2.144,-1.288l-2.144,-1.286l2.144,-1.284l-2.144,-5.66l-1.292,-2.915l-4.811,0l-8.765,1.067l-2.765,-0.422l-7.959,-0.441l0.018,-2.103l-1.218,-1.382l1.218,-1.385l-1.218,-1.382l1.218,-1.385l-1.218,-1.38l1.218,-1.387l-1.218,-1.381l1.218,-1.384l-1.218,-1.384l1.218,-1.382l-1.218,-1.384l1.218,-1.383l-1.218,-1.383l1.218,-1.384l-1.218,-3.13l1.147,-11.367l-3.716,0l0,-3.422l-6.41,0l0,-1.385c-8.049,0.983 -13.219,2.927 -16.607,5.464l0,1.384l1.09,3.569l-1.38,4.442l-2.008,-4.994l-5.412,0l0,-32.677l-2.457,-7.491l-2.954,0l0,-12.146l-5.258,0l-4.696,-0.7l-6.158,-0.702l0,1.402l-9.03,0l0,-1.779l-6.879,0l0,13.925l-2.108,30.594l-2.29,32.885l-2.497,19.275l-2.283,7.482l-3.099,0l0,14.899l-3.002,0l0,-7.686l-3.392,0l0,-8.816l-3.017,0l0,-45.471l-1.584,-1.449l-2.124,-1.097l-2.333,-1.774l-0.571,-1.595l-0.568,-2.591l-0.416,2.591l-6.166,0.881l0,2.488l-2.383,2.546l-0.302,1.525l-2.391,34.489l-3.052,0l0,8.552l-7.645,0l0,9.496l-3.618,0l0,3.818l-1.27,1.608l-4.041,0l0,-2.415l-3.856,0l0.498,-2.098l-0.498,-1.774l0.498,-1.776l-0.498,-1.773l0.498,-1.774l-0.498,-1.774l0.498,-1.775l-0.498,-1.772l0.498,-1.774l-0.498,-1.774l0.498,-1.775l-0.498,-1.774l0.498,-1.772l-0.498,-1.775l0.498,-1.774l-0.498,-1.774l0.498,-1.774l-0.498,-1.773l0.498,-1.776l-0.498,-3.997l-4.506,0l0,-2.909l-2.787,-0.505l0,-1.395l-0.569,1.395l-4.499,0l-2.09,-0.952l0,1.457l-3.738,0l0,-15.712l-0.507,15.712l-4.118,0l0,2.909l-10.604,0l0,60.445l-3.915,0l1.604,-1.524l-1.604,-7.042l1.604,-1.408l-1.604,-1.408l1.604,-1.407l-1.604,-1.409l1.604,-1.409l-1.604,-1.408l1.604,-1.408l-1.604,-1.409l1.604,-1.408l-1.604,-1.409l1.604,-1.407l-1.604,-1.408l1.604,-1.409l-1.604,-1.41l1.604,-1.406l-1.604,-1.409l1.604,-1.409l-1.604,-1.408l1.604,-1.409l-1.604,-1.408l1.604,-1.405l-1.604,-1.412l1.604,-1.407l-1.604,-1.408l1.604,-1.407l-1.604,-1.41l1.604,-1.409l-1.604,-1.409l1.604,-1.406l-1.604,-1.408l1.604,-1.409l-1.604,-1.411l1.604,-1.406l-1.604,-1.409l1.604,-1.406l-1.604,-1.411l1.604,-1.406l-1.604,-1.411l1.604,-1.407l-1.604,-1.408l1.604,-1.407l-1.604,-1.41l1.604,-1.406l-1.604,-1.413l1.604,-1.405l-1.604,-1.408l1.604,-1.409l-1.604,-1.408l1.604,-1.407l-1.604,-1.41l1.604,-1.409l-1.604,-1.409l1.604,-1.406l-1.604,-1.408l1.604,-1.409l-1.604,-1.41l1.604,-1.407l-1.604,-1.409l1.604,-1.408l-1.604,-1.409l1.604,-1.406l-1.604,-1.409l1.604,-1.408l-7.298,0l0,-4.262l2.296,-2.835l-30.5,0l0,2.835l2.299,4.262l-5.697,0l-1.603,1.408l1.603,1.409l-1.603,1.406l1.603,1.409l-1.603,1.408l1.603,1.409l-1.603,1.407l1.603,1.41l-1.603,1.409l1.603,1.408l-1.603,1.406l1.603,1.409l-1.603,1.409l1.603,1.41l-1.603,1.407l1.603,1.408l-1.603,1.409l1.603,1.408l-1.603,1.405l1.603,1.413l-1.603,1.406l-0.54,-1.465l-9.191,0l0,-1.936l-3.732,0l-2.993,-0.812l-0.578,-40.352l-0.58,40.352l-4.938,0l0,2.748l-12.928,0l0,4.302l2.359,9.035l0,47.977l-2.359,6.408l0,7.097l-0.842,-48.55l-4.369,0l0,-40.296l-8.854,-2.953l-5.453,0l0,-10.554l-0.528,10.554l-2.685,-68.413l-5.508,-1.794l-2.307,-0.854l-10.729,0.854l-5.897,1.24l-11.864,0.554l0,7.601l-2.981,0l0.688,3.192l-0.963,3.195l-0.964,3.196l-0.965,3.192l-0.967,3.196l-0.964,3.194l-0.963,3.195l0,3.196l-2.616,1.007l0.689,2.188l-0.967,3.191l-0.962,59.059l-10.312,0l0,21.335l-1.046,-32.469l-14.227,0l0,4.372l-2.09,-8.126l-7.161,0l0,69.454l-2.008,-81.794l-17.51,-2.318l-13.255,1.839l-4.277,0.479l0,73.768l-1.579,28.718l-3.495,0l0,-38.546l-2.653,-2.802l0,-47.707l-20.958,0.024l-3.065,-1.884l-32.334,1.375l-15.534,-2.928l-10.637,0.139l-7.069,-2.711l-1.56,2.428l0,8.943l-3.22,0l0,-1.407l-7.077,-3.768l-4.661,3.768l-1.308,-2.64l-0.503,2.64l-0.609,1.407l-4.808,0l0,4.213l-2.255,2.077l-0.951,1.914l0.951,1.917l-0.951,1.911l0.951,1.915l-0.951,1.914l0.951,1.914l-0.951,1.912l0.951,1.915l-0.951,1.913l0.951,1.915l-0.951,1.914l0.951,1.912l-0.951,1.914l0.951,1.915l-0.951,1.913l0.951,1.914l-0.951,1.915l0.951,1.912l-0.951,1.916l0.951,1.912l-0.951,1.914l0.951,1.913l-0.951,1.916l0.951,1.866l-3.384,0l-0.573,1.825l-5.201,0.978l-2.616,-0.796l-3.445,-0.789l0,1.585l-0.351,2.459l0,14.975l-1.737,-3.477l-0.892,-1.481l-1.481,1.481l-0.518,1.479c-1.463,1.291 -3.089,2.095 -4.789,2.679l0,-42.983l-1.871,-1.868l-2.686,-16.859l-2.039,-1.639l-1.238,-2.769l1.236,-1.483l-4.35,0l0,-1.632c-3.035,-1.351 -4.287,-2.655 -6.331,-3.313l-2.765,-0.692l-3.018,-0.545l0,2.77l-1.831,-1.483l-3.956,0l-0.69,1.681l0.69,1.337l-0.938,1.877l-6.129,0l0,1.483l0.691,1.692l-1.855,1.013l-1.477,1.236l0,59.365l-2.064,7.063l-1.165,3.05l-3.822,-0.502l0,-12.178l-3.779,-0.525l-0.439,-41.245l-1.054,-3.052l-1.262,-1.996l-0.737,-2.209c-1.401,-2.313 -3.654,-3.644 -6.743,-3.995c-4.355,-0.108 -10.447,-0.584 -14.322,2.42l-2.422,0.839l0,2.103l-3.581,0.842l0,62.455l-8.898,0.317l0,277.185l904.167,0l0,-277.185l-3.501,0Z" style="fill:url(#_Linear2);"/><path id="Fill-3" d="M755.576,284.47l3.669,-1.503l2.531,0.012l0,1.491l-6.2,0ZM672.658,284.338l-2.273,0.09l-0.007,-1.524l2.299,-0.005l-0.019,1.439ZM648.4,278.763l-0.005,-4.257l3.831,0.003l0.004,4.252l-3.83,0.002ZM648.39,269.046l3.829,0.009l0.004,4.082l-3.828,-0.004l-0.005,-4.087ZM648.387,263.595l3.82,0.017l0.005,3.802l-3.822,-0.013l-0.003,-3.806ZM644.396,278.138l0,0.627l-0.316,0l0,-0.583l0.007,0l0.072,-0.021l0.069,-0.023l-0.069,-0.025l-0.072,-0.021l-0.073,-0.015l-0.072,-0.011l-0.062,-0.006l-0.074,-0.007l-0.074,-0.002l-0.076,0.002l-0.07,0.007l-0.072,0.011l-0.073,0.016l-0.072,0.019l-0.069,0.024l0.069,0.024l0.072,0.021l0.006,0l0,0.59l-0.254,0l0,-0.217l-0.074,-0.012l-1.353,0l0,-0.27l0.004,-0.002l0.077,-0.021l0.074,-0.027l-0.074,-0.025l-0.077,-0.024l-0.076,-0.016l-0.081,-0.009l-0.05,-0.009l-0.081,-0.007l-0.077,-0.002l-0.077,0.002l0,-3.626l3.068,0.003l0,3.62l-0.021,0.007l0.021,0.008ZM641.328,269.027l3.064,0.009l0.004,4.092l-3.068,-0.003l0,-4.098ZM641.33,263.563l3.062,0.015l0,3.81l-3.064,-0.008l0.002,-3.817ZM639.734,267.374l-3.913,-0.012l0.003,-1.968l0.326,-0.031l0.091,-0.015l0.9,-0.336l0.05,-0.036l0.792,-0.561l0.61,-0.73l0.06,-0.132l1.081,0.003l0,3.818ZM639.729,273.122l-3.913,-0.006l0.002,-4.102l3.916,0.009l-0.005,4.099ZM639.727,278.092l-0.049,0.014l-0.069,0.025l0.069,0.024l0.049,0.012l0,0.468l-0.44,0l0,-0.453l0.005,0l0.071,-0.02l0.071,-0.024l-0.071,-0.024l-0.071,-0.021l-0.071,-0.015l-0.035,-0.007l-0.075,-0.011l-0.074,-0.005l-0.075,-0.003l-0.071,0.003l-0.074,0.005l-0.072,0.013l-0.075,0.014l-0.069,0.019l-0.035,0.012l-0.447,-0.003l-0.067,0.002l-0.066,0.007l-0.064,0.014l-0.008,0.001l-0.032,-0.006l-0.073,-0.007l-0.069,-0.002l-0.478,-0.006l-0.071,0.003l-0.071,0.006l-0.069,0.013l-0.07,0.016l-0.038,0.011l-0.016,-0.003l-0.077,-0.016l-0.075,-0.012l-0.077,-0.007l-0.077,-0.003l-0.258,-0.005l-0.076,0.002l-0.075,0.007l-0.076,0.012l-0.076,0.016l-0.074,0.022l-0.057,0.021l-0.077,-0.022l-0.044,-0.009l0.005,-3.673l3.916,0.002l-0.002,3.593ZM633.321,267.354l-1.338,-0.005l-4.123,-0.013l0.011,-3.832l4.017,0.018l0.072,0.161l0.028,0.037l0.58,0.694l0.757,0.538l-0.004,2.402ZM633.319,269.005l-0.007,4.108l-1.338,0l-4.129,-0.006l0.012,-4.115l4.124,0.01l0,-0.062l1.338,0.004l0,0.061ZM633.305,278.126l-0.143,0.005l-0.078,0.008l-0.077,0.01l-0.078,0.017l-0.074,0.022l-0.01,0.003l-0.031,-0.009l-0.074,-0.022l-0.076,-0.016l-0.074,-0.013l-0.076,-0.007l-0.075,-0.003l-0.283,0.006l-0.077,0.003l-0.078,0.008l-0.038,0.006l-0.036,0.005l-0.075,0.017l-0.031,0.009l-0.05,-0.018l-0.073,-0.015l-0.072,-0.013l-0.074,-0.006l-0.072,-0.003l-0.407,0.006l-0.072,0.001l-0.074,0.009l-0.057,0.01l-0.046,-0.013l-0.067,-0.011l-0.069,-0.008l-0.067,-0.003l-0.44,0.005l0,-0.861l-0.015,-0.001l-0.081,-0.003l-0.143,0l-0.2,-0.001l-0.26,-0.001l-0.317,0l-1.331,0l0.007,-2.76l4.13,0.006l0,-0.022l1.339,0.002l-0.005,3.651ZM596.048,283.294l0,0.055l-4.874,-0.027l-0.16,0.04l0.016,0.016l-0.158,0l-0.133,0.036l0.836,0.734l-4.538,0.001l0.851,-0.787l-0.015,-0.04l-6.072,0.033l0,-0.061l0.04,-7.295l-0.2,-0.254l1.891,-1.908l5.394,0.002l5.374,0.001l1.927,1.932l-0.222,0.231l0.043,7.291ZM573.769,274.262l-0.12,9.9l-3.775,0l-0.243,-10.889l-1.782,0l0.584,-0.351l0.177,0.1l4.579,0.001l1.094,1.239l-0.514,0ZM546.151,197.252l-0.157,-9.699l1.204,1.039l0.019,0.953l0.127,7.702l-1.193,0.005ZM535.597,197.293l-0.097,-7.455l-0.016,-1.195l2.137,-1.054l0.133,9.696l-2.157,0.008ZM516.772,197.369l-0.075,-9.69l1.506,1.038l0.008,1.02l0.062,7.626l-1.501,0.006ZM506.559,197.409l-0.04,-7.538l-0.004,-1.104l1.83,-1.051l0.051,9.684l-1.837,0.009ZM472.53,280.662l25.36,0l0,3.808l-25.379,0l0.019,-3.808ZM411.757,284.47l-0.009,-2.042l-9.859,-0.681l-1.629,-0.063l-0.788,-0.051l-0.004,-3.019l0.004,0l1.1,-0.017l0,-0.283l-1.259,-0.023l-1.825,-0.007c2.442,-2.551 5.694,-4.536 9.265,-4.536c6.288,0 11.583,6.15 13.214,10.722l-8.21,0ZM342.928,209.621l-0.206,0l-1.543,-0.028l0,-0.013l-0.018,0l0,-3.82l1.767,0l0,3.861ZM342.928,203.924l0,0.958l-1.767,0l0,-0.958l1.767,0ZM326.029,204.883l-1.324,0l0,-0.956l1.324,-0.001l0,0.957ZM326.028,209.58l-0.134,0l0,0.014l-1.19,0.024l0,-3.858l1.325,0l-0.002,3.82ZM200.53,271.082l-0.006,-1.593l0.081,0l0,-0.135l-0.016,-0.007l-0.065,0l-0.005,-1.243l0.05,0l0,-0.075l0.089,-0.095l0,-0.039l-0.025,-0.027l-0.002,-0.445l0.056,-0.052l0,-0.075l0.07,0.084l0,0.208l-0.009,0l-0.019,0l0,0.198l0.019,0l0,0.12l-0.019,0l0,0.093l0.102,0.085l0,0.078l0.02,0.002l0.064,0l0.003,0.042l0.004,1.523l0,0.148l0.007,1.206l-0.399,-0.001ZM200.094,271.048l-7.48,0.074l0,-3.043l0.055,0l0.016,-0.001l0,-0.063l0.079,-0.069l0,-0.076l-0.018,0l0,-0.095l0.018,0l-0.002,-0.156l-0.014,-0.003l-0.008,0l0,-0.169l0.057,-0.069l0,-0.116l0.031,-0.029l0,-0.154l-0.016,-0.003l-0.004,0l0,-0.071l0.034,0l0.097,-0.183l0.136,-0.159l0.17,-0.13l0.194,-0.096l0.209,-0.057l0.221,-0.016l0.217,0.025l0.064,0.019l0.051,0.046l0.157,0.205l0.111,0.23l0.041,0.083l0,0.273l0.048,0.155l0,0.06l0.019,0.027l0,0.018l0.009,0l0.255,0l0,-0.018l0.041,-0.026l0,-0.073l0.012,-0.03l0.035,0.104l0,0.047l0.014,0.023l0,0.015l0.006,0.002l0.208,0l0,-0.016l0.034,-0.022l0,-0.059l0.051,-0.114l0.017,0l0,-0.203l0.04,-0.1l0.053,-0.095l0.067,-0.09l0.072,-0.084l0.085,-0.074l0.093,-0.066l0.1,-0.057l0.103,-0.047l0.112,-0.037l0.115,-0.025l0.115,-0.013l0.116,-0.002l0.118,0.002l0.116,0.013l0.113,0.025l0.113,0.036l0.105,0.047l0.1,0.056l0.092,0.067l0.083,0.074l0.076,0.083l0.065,0.091l0.054,0.094l0.045,0.102l0,0.203l0.017,0l0.052,0.112l0,0.06l0.032,0.022l0,0.016l0.209,0l0.006,-0.001l0,-0.015l0.016,-0.023l0,-0.024l0,0.02l0.256,0l0.009,-0.002l0,-0.018l0.02,-0.027l0,-0.058l0.046,-0.157l0,-0.274l0.041,-0.083l0.108,-0.231l0.159,-0.207l0.206,-0.064l0.218,-0.028l0.222,0.018l0.214,0.054l0.195,0.096l0.174,0.131l0.138,0.16l0.1,0.184l0.037,0l0,0.072l-0.008,0l-0.012,0.003l0,0.153l0.031,0.031l0,0.116l0.059,0.071l0,0.17l-0.008,0l-0.015,0l0.002,0.16l0.015,0l0,0.097l-0.015,0l0,0.077l0.079,0.068l0,0.063l0.016,0.001l0.057,0l0,0.037l0.005,1.235l0,0.118l0.005,1.58l-0.002,-0.003ZM192.186,269.332l-0.063,0l-0.014,0.007l0,0.134l0.077,0l0,1.578l-0.472,-0.003l0,-2.888l0.06,0l0.023,-0.001l0,-0.078l0.099,-0.086l0,-0.091l-0.022,0l0,-0.119l0.022,0l0,-0.195l-0.024,0l-0.005,0l0,-0.208l0.069,-0.086l0,-0.087l0.082,0l0,0.165l0.057,0.053l0,0.439l-0.025,0.027l0,0.039l0.089,0.094l0,0.076l0.047,0l0,1.23ZM148.171,284.47l0.037,-3.549l4.358,0.006l4.472,0.005l4.458,0.008l4.072,0.005l0.067,3.525l-17.464,0ZM812.365,284.47l0,-1.508l3.119,-0.019l0,-1.023l-2.809,-0.411l0,-1.398l3.597,-1.688l-0.672,-0.875l-0.045,-0.023l-0.071,0.001l0.006,-0.148l0.104,-0.004l0.006,-0.894l0.685,-0.103l1.401,-0.218l0.291,-1.126l-0.194,-0.04l-0.194,-0.068l-0.2,-0.102l-0.2,-0.133l-0.2,-0.168l-0.058,-0.053l0.013,-0.023l-0.046,-0.012l-0.116,-0.12l-0.213,-0.248l-0.213,-0.293l-0.213,-0.34l-0.22,-0.396l-0.22,-0.45l-0.232,-0.511l-1.317,0.044l0.129,-0.552l-0.091,-0.15l-0.639,0.019l-1.899,0.083l-2.551,0l-0.529,-0.004l-3.042,-0.157l-2.041,-0.205l-0.788,-0.081l-2.629,-0.411l-1.582,-0.334l-0.852,-0.183l-2.254,-0.621l-1.357,-0.46l-0.736,-0.252l-1.298,-0.535l-0.491,-0.233l-0.6,-0.29l-2.313,-1.239l-0.193,-0.118l0.084,-1.268l-0.517,-0.257l0.006,-0.074l-0.006,-0.082l-0.013,-0.095l-0.019,-0.081l-0.026,-0.078l-0.039,-0.071l-0.052,-0.066l-0.058,-0.061l-0.103,-0.081l-0.065,-0.048l-0.058,-0.038l-0.071,-0.036l-0.064,-0.033l-0.065,-0.029l-0.148,-0.053l-0.059,-0.022l-0.058,-0.019l-0.064,-0.014l-0.155,-0.032l-0.046,-0.008l-0.174,-0.021l-0.026,0l-0.084,-0.004l-0.006,-0.003l-0.026,-0.026l-0.032,-0.031l-0.026,-0.035l-0.019,-0.038l-0.02,-0.04l-0.013,-0.042l-0.013,0.042l-0.013,0.041l-0.019,0.038l-0.032,0.037l-0.02,0.028l-0.032,0.028l-0.006,0.003l-0.168,0.015l-0.162,0.026l-0.051,0.01l-0.052,0.013l-0.162,0.045l-0.064,0.021l-0.058,0.022l-0.065,0.028l-0.135,0.064l-0.065,0.034l-0.071,0.04l-0.065,0.042l-0.064,0.049l-0.052,0.06l-0.077,0.086l-0.046,0.069l-0.045,0.072l-0.026,0.08l-0.019,0.08l-0.007,0.083l0.007,0.082l0,0.027l-0.51,0.336l0.084,1.246l-1.428,0.802l-0.471,0.233l-1.434,0.692l-2.047,0.851l-0.769,0.271l-1.42,0.491l-2.338,0.673l-0.879,0.204l-1.621,0.367l-2.661,0.466l-0.794,0.101l-2.041,0.247l-3.022,0.225l-0.517,0.014l-2.545,0.065l-1.86,-0.033l-0.536,-0.003l-0.006,0.141l0.116,0.516l-1.337,-0.013l0.052,0.485l0.032,0.424l0.033,0.371l0.019,0.322l0.006,0.275l0.007,0.236l0,0.195l-0.007,0.161l-0.019,0.126l-0.019,0.096l-0.026,0.066l-0.026,0.039l0.252,1.049l1.369,0.186l0.368,0.049l0,0.256l-0.148,0.201l-0.007,0.034l0.155,0.087l0,0.032l-0.316,0.438l-0.007,0.027l0.116,0.061l-0.219,0.308l-0.013,0.026l0.065,0.03l-0.265,0.363l3.255,1.572l0,1.272l-1.75,0.022l-0.246,0.154l-4.023,1.633l-1.021,0l-0.006,0l-0.02,0.01l-0.277,0l-0.013,0l-2.713,1.096l-5.922,0l0,-0.566l0.013,-8.662l-2.635,-2.45l0.006,-8.753l-2.544,-2.371l0.006,-6.332l-3.565,-3.335l-0.058,0.221l-0.303,-0.001l0,-1.696l-5.542,5.086l-0.013,1.681l-0.006,1.052l0.019,0l0,3.211l-0.019,0.019l0,-3.23l-0.007,1.153l0,2.086l-0.006,0.002l-4.017,3.692l0.013,6.042l-2.945,2.712l-0.252,-31.658l-5.742,-0.035l-0.251,0.42l-5.548,-0.033l-0.091,0.316l-5.16,-0.03l-0.465,2.962l-0.103,-0.001l-0.065,0.407l0.039,37.897l-14.673,0.011l0.187,-38.487l-0.846,-3.612l-0.032,-0.864l-0.104,-0.491l-0.019,-0.105l-1.272,-0.006l-0.659,0.061l-0.471,0.704l-2.577,-0.013l-0.091,-0.259l-6.846,-0.042l-0.006,0.258l-5.599,-0.033l-0.491,40.718l-0.233,-0.088l-1.162,-0.149l-0.917,0.003l-0.02,-4.958l-0.064,-15.139l-0.013,-1.538l-17.221,-0.098l-0.85,0.728l0,0.816l-3.819,-0.018l0,-0.521l-1.237,-0.007l-0.179,0.205l0,0.316l-0.427,-0.002l-0.003,-1.828l-0.475,-0.004l0,-0.307l-1.145,-0.006l-0.058,0.09l0,0.216l-0.352,-0.001l-0.119,0.177l0,1.65l-3.06,-0.015l-1.303,-0.007l-0.961,-0.005l-0.088,-0.616l-0.19,-0.425l-0.192,-0.426l-0.608,-0.731l-0.79,-0.559l-0.081,-0.054l-0.887,-0.328l-0.105,-0.026l-0.167,-0.022l-0.211,-0.017l-0.463,-0.027l-0.533,0.026l-0.2,0.018l-0.148,0.021l-0.087,0.026l-0.908,0.326l-0.78,0.542l-0.599,0.715l-0.062,0.087l-0.177,0.387l-0.208,0.462l-0.084,0.583l-3.625,-0.018l0.008,-2.513l-0.458,-1.518l-11.249,-0.072l-0.019,3.569l0,0.297l-0.525,-0.003l-0.093,21.012l-1.467,0.094l-0.048,-2.502l-3.573,-0.002l-0.633,0.118l0.03,1.716l-4.549,0l-0.486,0.064l0.028,2.315l-0.323,-0.001l-0.127,-9.875l-0.519,0l11.223,-12.568l-3.199,-0.001l-0.024,-1.279l-1.471,0.474l-1.034,-0.975l-0.422,1.444l0.005,0.333l-3.513,-0.001l-0.007,-0.437l-2.364,-0.001l-0.055,-4.468l-4.964,-0.003l-0.332,0.92l0.013,1.906l-8.54,-0.005l-0.131,-0.024l-0.134,0.024l-8.566,-0.006l0.014,-1.905l-0.273,-0.92l-4.969,-0.005l-0.051,4.468l-2.342,0l-0.008,0.438l-3.478,-0.002l0.006,-0.335l-0.384,-1.445l-1.059,0.979l-1.492,-0.48l-0.024,1.28l-3.136,-0.001l4.801,5.435l-0.04,2.393l-5.317,3.19l-0.003,-0.187l-2.663,0.003l-0.005,-0.256l-0.836,-0.824l-6.774,0.005l-0.122,-7.028l-0.724,-41.055l-0.198,0.001l-0.275,-15.716l-0.282,0.001l-0.371,-21.245l-6.637,-1.924l-1.55,0.368l-1.234,-0.355l-8.341,1.99l0.007,0.632l-0.249,0.061l0.261,21.497l-0.181,0.404l0.174,13.998l-10.877,0.03l-0.139,-15.354l-0.131,0.001l-0.191,-21.219l-7.176,-1.919l-1.444,0.366l-1.333,-0.356l-7.766,1.986l0.003,0.68l-0.049,0.012l0.084,21.473l-0.033,0.4l0.062,15.651l-0.024,0.22l0.155,40.004l0.03,7.509l-1.547,0.002l-0.124,0.364l0.003,0.406l-3.491,0.002l-0.108,0.906l-0.01,0.098l-0.172,1.443l-25.767,0l0.014,-2.882l0.089,-18.601l-0.078,-0.109l0.051,-9.398l-0.097,-0.173l0.039,-8.037l-0.156,-0.018l0.002,-0.315l-9.433,-1.149l-1.186,0.177l-0.546,-0.066l0.056,-6.997l-0.208,-0.03l0.003,-0.309l-9.814,-1.351l-1.147,0.204l-0.39,-0.052l0.078,-6.982l-0.291,-0.045l0.002,-0.393l-9.877,-1.513l-1.104,0.234l-1.481,-0.227l-7.336,1.567l-0.146,8.366l-0.278,0.001l-0.157,9.152l-0.207,0l-0.622,35.76l-0.207,11.889l-3.066,0l-0.039,-0.054l-0.003,-3.885l-0.693,-0.929l-1.94,0.001l-5.15,-9.898l-2.232,-5.88l-1.501,-5.127l-0.936,-4.433l-0.992,-7.797l-0.243,-6.249l0.019,-2.434l0.854,0.004l1.164,-0.1l0.292,-4.046l-0.025,-0.951l-1.408,-0.132l-1.527,-0.002l-0.267,-10.975l-0.512,-10.805l-0.401,-12.453l-0.009,-0.469l0.293,-0.055l0.543,-0.121l0.371,-0.146l0.169,-0.164l0.002,-0.648l-0.044,-0.17l-0.253,-0.167l-0.45,-0.15l-0.663,-0.152l-0.054,-2.77l0.002,-0.402l0.079,-0.012l0.444,-0.105l0.299,-0.128l0.137,-0.141l0.007,-1.063l0.069,-0.017l0.374,-0.161l0.172,-0.179l0.029,-3.83l-0.045,-0.195l-0.257,-0.19l-0.454,-0.172l-0.62,-0.137l-0.746,-0.1l-0.177,-0.011l-0.096,-13.073l0.06,-6.998l-0.02,-0.355l-0.438,-0.342l-0.01,-6.421l-0.004,-0.036l-0.117,-0.001l-0.144,6.452l-0.476,0.336l-0.061,7.022l-0.33,13.377l-0.01,0.016l-0.616,0.042l-0.694,0.103l-0.546,0.141l-0.365,0.172l-0.156,0.192l-0.039,3.835l0.06,0.188l0.27,0.181l0.279,0.096l-0.011,0.992l0.048,0.148l0.219,0.143l0.37,0.126l0.377,0.077l-0.117,3.139l-0.494,0.102l-0.542,0.124l-0.361,0.151l-0.155,0.167l-0.007,0.648l0.059,0.171l0.267,0.164l0.458,0.144l0.706,0.149l-0.617,12.188l-0.714,10.784l-0.498,11.723l-1.859,-0.004l-1.219,0.13l0.241,4.196l0.361,0.802l1.242,0.103l0.484,0.005l-0.021,1.833l-0.363,6.361l-1.216,8.079l-1.107,4.647l-1.663,5.133l-2.446,5.891l-5.587,9.932l-0.791,0.002l-0.627,0.365l-1.469,-0.003l-0.176,0l-0.615,-0.003l-1.484,-0.003l-0.209,-0.001l-2.248,-0.005l-0.211,0l-0.874,0.006l0.874,0.003l0,0.071l-2.282,0.003l0.046,-0.894l1.648,-0.002l0.061,-0.005l0.022,0l0.062,-0.008l0,-0.145l-1.784,-0.004l0.118,-2.169l-1.955,-0.02l-0.515,-8.449l-0.153,-0.026l0.009,-3.06l0.433,-37.523l-0.229,-0.134l0.023,-1.235l-0.115,0.015l-1.034,0.226l-0.738,0.137l0,-0.176l-2.607,-0.204l-0.123,0.045l0.003,-0.185l-3.272,-0.582l-0.003,0.415l2.048,0.364l-2.231,-0.016l0,-0.05l-2.323,-0.03l-0.737,-0.102l-4.107,-0.051l-0.609,0.086l-1.52,-0.019l0,0.05l-2.485,-0.045l2.793,-0.356l0.003,-0.419l-3.683,0.477l-0.003,0.267l-0.134,0.011l-0.632,-0.011l-0.004,0.069l-0.068,0.006l-0.001,0.076l-0.58,-0.226l-2.657,0.137l-0.979,-0.218l-0.112,-0.016l0.01,1.227l-0.311,0.143l0.006,45.927l-0.01,1.232l-2.965,-0.024l0.067,-7.238l-6.088,-0.312l-0.009,-53.632l0.336,0l0.005,-0.002l0,-0.024l0.033,0l0.006,-0.004l0,-0.049l0.074,0l0.006,-0.004l0,-0.025l0.036,0l0.005,-0.002l0,-10.791l-2.926,0l0,-13.483l-0.305,0l0.009,-0.092l-0.391,-0.726l-0.645,-0.267l-0.518,0.349l-0.086,0.726l0,-7.399l-0.01,-0.976l-0.257,0.002l0.021,-0.162l-0.393,-0.727l-0.646,-0.256l-0.519,0.363l-0.088,0.769l0.006,0.013l-0.007,0l0,-6.122l-0.042,-0.765l-1.874,0.003l0.003,-10.575l-0.037,-0.451l-1.105,0l0,-1.859l0.288,-0.111l0.343,-0.765l-0.091,-0.209l0.064,-0.143l-0.347,-0.771l-0.257,-0.097l0,-0.242l-0.17,-0.058l-0.182,-0.011l-0.014,-1.664l-0.016,-1.787l-0.011,-1.785l-0.013,-1.785l-0.015,-1.784l-0.014,-1.786l-0.013,-1.786l-0.007,-0.084l-0.411,0.042l-0.016,1.783l-0.013,1.785l-0.015,1.783l-0.015,1.785l-0.014,1.783l-0.012,1.784l-0.016,1.729l-0.154,0.056l0,0.228l-0.292,0.112l-0.348,0.771l0.1,0.224l-0.057,0.127l0.345,0.765l0.252,0.096l-0.003,1.874l-1.153,0l-0.003,11.026l-1.965,0.001l-0.002,6.884l-0.811,0l0.374,-0.207l0.401,-0.762l-0.082,-0.715l-0.518,-0.249l-0.645,0.36l-0.398,0.759l0.08,0.715l0.203,0.099l-0.589,0l-0.002,8.383l-0.847,0l0.399,-0.216l0.404,-0.764l-0.081,-0.728l-0.516,-0.264l-0.647,0.352l-0.401,0.761l0.08,0.725l0.254,0.134l-0.651,0l-0.008,13.483l-2.922,0l-0.006,10.79l0.019,0.003l0.133,0l0,0.026l0.016,0.002l0.131,0l0,0.024l0.019,0.004l0.127,0l0,0.021l0.011,0.003l-0.039,65.969l-0.488,1.926l-0.003,3.198l-4.81,0l0.026,-69.088l-5.023,-1.772l-23.712,0.291l-2.756,1.846l0.146,68.723l-5.322,0l0,-0.221l0.625,-0.112l0.379,-0.189l-0.006,-0.349l-0.201,-0.191l-0.747,-0.176l-0.062,-0.008l-0.49,-50.548l-0.147,-4.603l-0.311,-4.392l-0.466,-4.103l-0.604,-3.748l-0.967,-0.003l-3.362,-0.964l-0.148,-0.325l-7.323,-0.015l-0.129,0.293l-3.775,0.98l-0.967,-0.004l-0.427,3.751l-0.324,4.103l-0.206,4.394l-0.085,4.607l-0.096,46.983l-2.144,-0.03l-0.011,-0.607l-0.077,-0.119l-1.348,-0.018l0.011,0.725l-1.622,-0.022l-0.396,-0.677l-0.013,-0.831l-0.495,-0.831l-0.836,-0.01l-0.047,-0.083l-0.015,0l-2.807,-0.156l-0.463,-0.025l-0.45,-0.022l-0.012,-1.026l-0.019,-0.033l-0.467,-0.02l-0.255,-0.011l-0.003,-0.225l-0.542,-1.12l-11.168,-0.131l0,0.033l-4.136,-0.051l0.017,2.29l-2.289,-0.028l-0.767,0.227l0.003,0.377l-3.753,-55.022l0.399,-0.031l0.316,-0.032l0.228,-0.035l0.134,-0.039l0.032,-0.038l1.74,-6l-0.091,-0.078l-0.235,-0.076l-0.131,-0.025l-0.003,-0.428l0.164,-0.652l-0.003,-0.697l-0.088,-0.081l-0.222,-0.077l-0.358,-0.076l-0.481,-0.067l-0.594,-0.06l-0.141,-0.011l-0.011,-2.076l-0.064,-0.061l-0.147,-0.056l-0.241,-0.055l-0.321,-0.051l-0.319,-0.034l-0.381,-11.823l0.112,-0.017l0.428,-0.11l0.242,-0.121l0.038,-0.127l0.118,-0.724l0.546,-0.092l0.332,-0.111l0.054,-0.12l0.174,-0.524l-0.179,-0.515l-0.226,-0.119l-0.442,-0.09l0.136,-0.833l-0.201,-0.157l-0.432,-0.141l-0.462,-0.084l-0.004,-0.541l-0.141,-0.111l-0.234,-0.077l-0.028,-6.656l-0.082,-0.113l-0.221,-0.103l-0.349,-0.084l-0.448,-0.064l-0.512,-0.037l0.076,-0.022l0.061,-0.035l0.017,-0.035l-0.047,-12.459l-0.027,-0.045l-0.069,-0.04l-0.005,-0.002l0.021,-0.008l0.06,-0.042l0.018,-0.046l-0.005,-1.858l-0.027,-0.048l-0.07,-0.042l-0.077,-0.022l0,-0.027l0.092,-0.035l0.062,-0.046l0.018,-0.046l-0.004,-1.856l-0.03,-0.046l-0.069,-0.046l-0.077,-0.025l0,-0.017l0.093,-0.035l0.062,-0.049l0.018,-0.047l-0.008,-1.854l-0.026,-0.047l-0.07,-0.045l-0.077,-0.027l0,-0.009l0.093,-0.038l0.061,-0.047l0.019,-0.052l-0.007,-1.849l-0.027,-0.051l-0.069,-0.045l-0.078,-0.027l0,-0.001l0.093,-0.039l0.062,-0.048l0.019,-0.053l-0.009,-1.847l-0.026,-0.052l-0.07,-0.047l-0.067,-0.026l0.083,-0.035l0.062,-0.052l0.018,-0.051l-0.008,-1.846l-0.026,-0.054l-0.046,-0.029l0.118,-0.053l0.075,-0.063l0.023,-0.066l-0.008,-1.843l-0.032,-0.067l-0.085,-0.061l-0.132,-0.051l-0.17,-0.038l-0.194,-0.022l-0.21,-0.004l-0.205,0.014l-0.191,0.03l-0.16,0.047l-0.125,0.056l-0.073,0.065l-0.021,0.068l0.007,1.841l0.033,0.066l0.086,0.059l0.095,0.036l-0.054,0.044l-0.015,0.055l0.005,1.844l0.027,0.052l0.07,0.048l0.067,0.023l-0.085,0.038l-0.062,0.05l-0.017,0.052l0.007,1.846l0.029,0.052l0.069,0.046l0.074,0.026l-0.093,0.04l-0.062,0.051l-0.017,0.05l0.007,1.85l0.027,0.048l0.072,0.045l0.075,0.026l0,0.009l-0.097,0.039l-0.058,0.047l-0.019,0.05l0.006,1.852l0.028,0.047l0.07,0.045l0.077,0.024l0,0.018l-0.095,0.038l-0.062,0.045l-0.016,0.048l0.005,1.855l0.029,0.046l0.07,0.041l0.076,0.026l0,0.023l-0.095,0.038l-0.062,0.046l-0.014,0.045l0.005,1.858l0.028,0.046l0.069,0.04l0.004,0l-0.022,0.01l-0.061,0.042l-0.018,0.046l0.04,12.452l0.029,0.037l0.072,0.033l0.062,0.013l-0.108,0.006l-0.51,0.053l-0.428,0.076l-0.323,0.097l-0.192,0.107l-0.051,0.115l0.018,6.628l-0.171,0.051l-0.184,0.112l-0.016,0.116l0.002,0.227l-1.212,0.162l0.042,0.447l-0.123,0.047l-0.295,0.236l-0.172,0.516l-0.018,0.245l0.175,0.513l0.262,0.227l0.339,0.136l0.062,0.71l0.295,0.066l0.09,0.531l0.191,0.119l0.385,0.11l0.239,0.039l-0.294,11.817l-0.157,0.016l-0.354,0.051l-0.275,0.055l-0.187,0.059l-0.103,0.06l-0.009,0.06l0.005,2.04l-0.494,0.047l-0.53,0.068l-0.412,0.076l-0.28,0.078l-0.143,0.082l-0.01,0.082l0.002,0.695l0.166,0.646l0.004,0.378l-0.294,0.076l-0.151,0.078l-0.008,0.078l1.767,5.954l0.089,0.038l0.187,0.036l0.281,0.034l0.362,0.029l0.172,0.009l-0.091,2.308l-3.117,53.804l-0.39,-0.005l-1.705,0.556l-11.669,-0.157l0.009,-2.153l-1.003,-0.594l0.002,-0.754l0.375,0.003l-0.002,-0.601l-0.046,-8.562l0.846,-0.192l-0.002,-0.645l0.217,-0.067l0.038,-0.011l0.189,-0.193l-0.003,-0.162l-0.038,0l-0.007,-1.052l-0.072,0.001l-0.014,0l-0.043,0.002l-0.047,0.007l-0.043,0.01l-0.041,0.015l-0.042,0.018l-0.01,0.005l-0.039,0.02l-0.033,0.027l-0.033,0.026l-0.031,0.032l-0.025,0.034l-0.021,0.035l-0.021,0.038l-0.015,0.016l-0.016,0.019l-0.012,0.019l-0.008,0.022l-0.006,0.022l-0.003,0.022l0.003,0.022l0.006,0.022l0.02,0.041l0.016,0.018l0.017,0.016l-0.029,0.03l-0.033,0.028l-0.034,0.026l-0.035,0.026l-0.038,0.021l-0.039,0.022l-0.035,0.017l-0.038,0.014l-0.04,0.015l-0.042,0.011l-0.045,0.01l-0.043,0.007l-0.163,0.001l0,-0.018l-0.003,-0.003l-0.001,-0.005l-0.003,-0.003l-0.002,-0.002l-0.003,-0.005l-0.006,-0.002l-0.002,-0.002l-0.005,-0.002l-0.005,-0.018l-0.011,-0.019l-0.013,-0.018l-0.017,-0.012l-0.019,-0.011l-0.021,-0.006l-0.023,-0.003l-0.023,0l-0.02,0.003l-0.022,0.008l-0.006,0.002l-0.018,0.011l-0.016,0.016l-0.024,0.023l0,0.146l-6.726,-1.541l0.009,-0.067l0.003,-0.019l-0.065,-0.014l0.006,-0.005l0.01,-0.01l0.009,-0.01l0.007,-0.013l0.005,-0.012l0.002,-0.012l0.006,-0.029l0,-0.013l-0.003,-0.014l-0.005,-0.018l-0.01,-0.017l-0.013,-0.014l-0.017,-0.01l-0.016,-0.006l-0.02,-0.003l-0.019,0.003l-0.018,0.007l-0.018,0.009l-0.013,0.014l-0.011,0.017l-0.005,0.019l-0.004,0.006l-0.009,0.005l-0.006,0.003l-0.008,0.003l-0.008,0.001l-0.008,0l-0.007,0l-0.011,-0.001l-0.008,-0.003l-0.008,-0.003l-0.005,-0.005l-0.007,-0.006l-0.239,-0.236l0,-0.098l-0.008,-0.049l-0.011,-0.047l-0.014,-0.047l-0.021,-0.044l-0.027,-0.042l-0.025,-0.043l-0.033,-0.037l-0.034,-0.034l-0.038,-0.032l-0.041,-0.028l-0.006,-0.009l-0.007,-0.009l-0.008,-0.008l-0.011,-0.008l-0.01,-0.007l-0.007,-0.005l-0.01,-0.005l-0.01,-0.005l-0.011,-0.004l-0.013,-0.003l-0.011,-0.002l-0.012,-0.002l-0.01,0.002l-0.014,0.002l-0.009,0.004l-0.01,0.003l-0.011,0.005l-0.009,0.006l-0.011,0.005l-0.008,0.007l-0.008,0.01l-0.011,0.007l-0.007,0.01l-0.006,0.008l-0.04,0.027l-0.036,0.035l-0.037,0.034l-0.031,0.037l-0.027,0.041l-0.023,0.043l-0.021,0.045l-0.015,0.046l-0.011,0.049l-0.008,0.048l-0.002,0.048l0.002,0.049l-0.238,0.24l-0.005,0.006l-0.007,0.005l-0.009,0.003l-0.008,0.002l-0.007,0.001l-0.009,0l-0.007,0l-0.01,-0.001l-0.008,-0.002l-0.007,-0.003l-0.005,-0.005l-0.009,-0.006l-0.005,-0.017l-0.009,-0.017l-0.014,-0.015l-0.015,-0.009l-0.019,-0.007l-0.02,-0.002l-0.018,0.002l-0.017,0.007l-0.016,0.01l-0.013,0.015l-0.011,0.017l-0.005,0.017l-0.002,0.014l0,0.014l0.005,0.027l0.004,0.014l0.015,0.024l0.007,0.011l0.008,0.01l0.005,0.003l-0.064,0.015l0.005,0.02l0.015,0.064l-6.604,1.587l0,-0.143l-0.021,-0.024l-0.018,-0.012l-0.016,-0.012l-0.009,-0.002l-0.019,-0.008l-0.023,-0.003l-0.02,0l-0.021,0.003l-0.021,0.007l-0.017,0.01l-0.016,0.013l-0.013,0.017l-0.01,0.018l-0.006,0.019l-0.005,0.002l-0.003,0.002l-0.002,0.002l-0.005,0.003l-0.002,0.002l-0.002,0.004l-0.003,0.005l-0.003,0.003l0,0.014l0.003,0.003l-0.16,0.002l-0.041,-0.007l-0.04,-0.01l-0.044,-0.011l-0.04,-0.014l-0.031,-0.012l-0.038,-0.019l-0.038,-0.02l-0.036,-0.022l-0.034,-0.023l-0.033,-0.026l-0.031,-0.027l-0.029,-0.031l0.016,-0.016l0.015,-0.017l0.011,-0.019l0.008,-0.022l0.005,-0.021l0.003,-0.021l-0.003,-0.023l-0.005,-0.021l-0.008,-0.021l-0.011,-0.019l-0.015,-0.018l-0.016,-0.015l-0.016,-0.037l-0.022,-0.035l-0.026,-0.032l-0.028,-0.032l-0.031,-0.025l-0.036,-0.024l-0.036,-0.024l-0.011,-0.004l-0.027,-0.011l-0.002,0l-0.008,-0.006l-0.041,-0.012l-0.044,-0.011l-0.041,-0.005l-0.043,-0.002l-0.014,0l-0.07,0l-0.002,1.03l-0.04,0l0,0.159l0.185,0.187l0.037,0.012l0.209,0.06l0,0.639l0.823,0.173l-0.011,7.903l-2.73,-1.214l0.175,-17.5l0,-0.007l-0.01,-0.007l-0.021,-0.006l-0.031,-0.006l-0.041,-0.005l-0.049,-0.005l-0.057,-0.004l-0.063,-0.004l-0.07,-0.002l-0.073,-0.002l-0.079,0l-0.107,0l0.01,-0.95l0,-0.005l-0.01,-0.005l-0.021,-0.008l-0.03,-0.006l-0.042,-0.004l-0.046,-0.004l-0.059,-0.005l-0.062,-0.004l-0.07,-0.002l-0.074,-0.002l-0.078,0l-4.268,-0.025l-0.385,0l-0.385,0l-0.386,0.002l-0.387,0.002l-0.392,0.005l-0.388,0.004l-0.388,0.008l-0.228,0.006l-0.221,0.011l-0.215,0.011l-0.203,0.011l-0.193,0.013l-0.177,0.013l-0.162,0.017l-0.143,0.017l-0.129,0.018l-0.107,0.017l-0.088,0.019l-0.067,0.018l-1.149,0.393l-0.118,8.501l-16.63,-0.122l-19.778,-0.145l-0.083,2.798l0.136,0.185l0.755,0.004l0.095,0.135l-0.026,0.982l0.127,0.173l0.953,0.006l-0.013,0.008l-0.128,0.097l-0.116,0.11l-0.097,0.121l-0.085,0.129l-0.067,0.136l-0.048,0.142l-0.031,0.144l-0.011,0.146l0,0.024l-13.697,5.897l-0.11,2.179l1.792,0.589l-0.055,1.166l1.605,0.455l-0.055,1.213l2.564,0.589l2.054,0.471l6.221,0.009l-0.091,3.562l-14.035,0l0,28.268l707.832,0l0,-28.268l-21.467,0Z" style="fill:#fff;"/><rect id="Fill-4" x="0" y="311" width="960" height="300" style="fill:#fff;"/></g><defs><linearGradient id="_Linear1" x1="0" y1="0" x2="1" y2="0" gradientUnits="userSpaceOnUse" gradientTransform="matrix(1.36696e-14,223.242,-223.242,1.36696e-14,467.583,80)"><stop offset="0%" style="stop-color:#00f393;stop-opacity:1"/><stop offset="100%" style="stop-color:#d1fff1;stop-opacity:1"/></linearGradient><linearGradient id="_Linear2" x1="0" y1="0" x2="1" y2="0" gradientUnits="userSpaceOnUse" gradientTransform="matrix(1.15772e-14,189.071,-189.071,1.15772e-14,480.083,132.648)"><stop offset="0%" style="stop-color:#f39300;stop-opacity:1"/><stop offset="100%" style="stop-color:#ffd982;stop-opacity:1"/></linearGradient></defs></svg>