<?xml version="1.0" encoding="UTF-8" standalone="no"?>
<svg width="360px" height="960px" viewBox="0 0 360 960" version="1.1" xmlns="http://www.w3.org/2000/svg" xmlns:xlink="http://www.w3.org/1999/xlink">
    <!-- Generator: Sketch 3.6.1 (26313) - http://www.bohemiancoding.com/sketch -->
    <title>background_small</title>
    <desc>Created with Sketch.</desc>
    <defs>
        <linearGradient x1="50%" y1="0%" x2="50%" y2="58.6838084%" id="linearGradient-1">
            <stop stop-color="#01EBA4" offset="0%"></stop>
            <stop stop-color="#D1FFF1" offset="100%"></stop>
        </linearGradient>
        <linearGradient x1="50%" y1="3.2286352%" x2="50%" y2="44.9023352%" id="linearGradient-2">
            <stop stop-color="#EBA401" offset="0%"></stop>
            <stop stop-color="#FFD982" offset="100%"></stop>
        </linearGradient>
    </defs>
    <g id="Introduction" stroke="none" stroke-width="1" fill="none" fill-rule="evenodd">
        <g id="Mobile-Portrait">
            <g id="background_small" transform="translate(-7.000000, 0.000000)">
                <rect id="Rectangle-10" fill="#BACFF9" x="7" y="0" width="372" height="189"></rect>
                <path d="M312.482643,112.758546 L306.761703,112.761076 L305.834178,112.950052 L305.807814,113.136137 L305.810211,113.839288 L305.702359,113.860245 L305.678392,114.036574 L305.743103,143.879995 L303.00127,143.879995 L301.678288,143.902759 L301.683081,152.944347 L299.938278,152.944347 L300.062907,94.9720223 L299.976626,94.790634 L299.760922,94.6200858 L299.425383,94.473024 L298.996372,94.3599274 L298.500254,94.2891065 L297.975375,94.2645359 L286.677298,94.2706786 L286.164403,94.2948878 L285.704235,94.3664313 L285.327952,94.4806119 L285.064314,94.6276737 L284.927702,94.798222 L284.534642,142.371076 L280.879664,141.838113 L280.877267,141.412465 L279.583045,141.440287 L279.580649,141.391869 L279.386515,141.390424 L279.065357,141.393676 L278.638743,141.401986 L278.135434,141.413549 L277.994029,141.417524 L277.529067,141.350316 L277.421216,120.022024 L277.263033,120.02094 L277.248653,117.384307 L276.934684,117.375635 L275.532611,117.378165 L275.446329,98.9488325 L275.434346,96.0592676 L275.429552,95.4251315 L275.084426,95.3600919 L266.62405,95.450786 L266.257354,95.5241362 L266.257354,96.1561043 L266.264544,99.034468 L266.300495,117.08657 L266.125535,117.081873 L264.500568,117.048992 L262.604773,117.029119 L261.988819,117.027312 L262.063117,104.677015 L260.728151,104.462384 L247.994447,104.553078 L248.085282,74.0318002 L247.950826,73.6892583 L247.952504,72.9445549 L247.956099,71.8930814 L247.958975,70.7805429 L246.705498,67.3959543 L246.355578,67.2814124 L237.290753,67.4891778 L236.568146,68.0365944 L236.270714,68.6660332 L236.263524,69.8248221 L236.256334,70.927966 L236.25178,71.7463809 L236.11349,72.0220766 L236.107978,72.9069765 L235.736249,131.519942 L233.979462,126.643417 L233.932247,115.93826 L233.664775,109.712164 L233.603898,95.448618 L233.125036,95.3239588 L233.119524,95.3239588 L233.115929,94.6088845 L232.588653,94.4632681 L232.532331,94.4625454 L232.529694,93.7380765 L232.00146,93.5892081 L231.949691,93.5892081 L231.946815,92.9417027 L231.419779,92.7910277 L231.371606,92.7910277 L231.369688,92.0181404 L230.841694,91.8645747 L228.74122,91.8631294 L228.195729,92.0163338 L228.196688,92.7895823 L228.186622,92.7895823 L227.640412,92.9402574 L227.641371,93.5874014 L227.626751,93.5874014 L227.080541,93.7359085 L227.0815,94.4600161 L227.063285,94.4600161 L226.516117,94.6056325 L226.517075,95.3431093 L226.450687,95.3431093 L225.958882,95.4717432 L225.965114,109.72734 L225.719691,115.950545 L225.724245,130.772348 L225.097266,133.587478 L224.762686,133.599764 L224.762686,133.688651 L224.064525,133.715028 L224.063566,133.809336 L223.282959,133.848359 L223.282959,133.950977 L222.788518,133.966153 L222.741063,96.10335 L222.724766,82.9191003 L217.625532,81.3816364 L217.482928,83.9731032 L217.556507,117.337334 L214.866203,117.399483 L214.858773,116.386672 L214.868839,116.376916 L214.850624,114.002971 L214.946972,114.000441 L215.085022,113.988156 L215.207015,113.969728 L215.304081,113.945158 L215.37047,113.916251 L215.39971,113.885538 L215.281552,99.141422 L215.280594,99.1367247 L215.273404,99.0966169 L215.226908,99.0554252 L215.147816,99.0196534 L215.038766,98.9925536 L214.908864,98.9748483 L214.766021,98.969067 L214.725996,98.9708737 L214.702508,98.9715964 L214.667995,98.9726804 L210.597668,87.4566964 L206.383778,87.4996948 L202.409798,99.0738531 L202.374326,99.0720464 L202.352516,99.0713237 L202.346285,99.0713237 L202.202722,99.0767437 L202.069945,99.0940876 L201.956341,99.1215488 L201.870059,99.1569592 L201.816373,99.1985123 L201.800075,99.2425947 L201.772753,113.955636 L201.793604,113.986711 L201.851844,114.015617 L201.941721,114.040188 L202.05892,114.058616 L202.193375,114.070901 L202.276301,114.073069 L202.273425,116.43762 L202.29164,116.463636 L202.32807,116.479895 L202.289962,143.412433 L201.336312,143.428693 L201.328643,152.944347 L200.58111,152.944347 L200.583027,152.088354 L200.244852,152.08727 L200.242935,131.710725 L200.583027,131.709641 L200.580151,106.851144 L199.886544,106.685293 L199.885825,98.2792859 L199.103061,98.0274382 L199.051292,97.9674572 L198.982267,97.9085602 L198.895985,97.8521926 L198.792208,97.7987156 L198.67405,97.7474065 L198.540554,97.7004335 L198.393156,97.6574351 L198.233296,97.6184113 L198.063369,97.5840849 L197.883377,97.5548171 L197.695235,97.5313305 L197.500623,97.5125413 L196.681668,97.2494923 L195.873738,97.5071214 L195.680084,97.5241039 L195.492661,97.5461451 L195.314586,97.5743289 L195.145618,97.6072101 L194.987436,97.6451498 L194.841955,97.6874256 L194.710137,97.7340373 L194.593896,97.7835397 L194.492995,97.8370167 L194.40935,97.893023 L194.342002,97.9511973 L194.293109,98.0111783 L193.520411,98.2572447 L193.518494,106.666504 L192.824168,106.831993 L192.816738,131.710363 L193.135979,131.710725 L193.130467,152.063784 L191.587946,152.059448 L191.611674,135.396663 L187.871133,135.232619 L187.338585,135.289709 L187.337626,136.268194 L187.309585,136.254102 L186.322381,136.2046 L185.614394,136.263497 L185.61703,132.35823 L185.128102,132.353171 L185.130738,127.546022 L184.495371,127.525788 L184.448156,127.520729 L184.386321,127.516032 L184.311783,127.511334 L184.223585,127.506637 L184.124601,127.502662 L184.014592,127.498688 L183.894756,127.495074 L183.767491,127.491461 L183.632077,127.489293 L183.49211,127.486764 L183.348307,127.48568 L183.202827,127.483873 L182.54589,127.462916 L182.060317,127.483512 L182.059358,124.967563 L181.096121,124.844711 L179.918859,124.940102 L179.920776,129.231632 L179.920776,129.231993 L179.475229,129.262706 L179.478105,133.627225 L179.00811,133.653963 L179.010028,135.554926 L178.881804,135.553842 L178.68815,135.555649 L178.511992,135.56143 L178.471967,135.562876 L178.473645,133.864258 L177.722037,133.80789 L177.722756,132.202496 L177.56745,132.190211 L176.75209,132.251276 L176.746578,124.306689 L172.927425,124.625383 L172.936293,133.812588 L172.567439,133.838242 L172.563365,152.944347 L172.519985,152.944347 L172.521902,146.024857 L170.767752,146.015823 L170.735876,134.208968 L169.861318,127.742225 L169.813383,106.420076 L169.371431,104.625344 L169.331406,84.919068 L168.946015,83.6956009 L168.555352,83.6045454 L168.554393,82.8197342 L168.553435,82.641598 L168.279012,82.5758357 L168.278053,81.8043938 L168.278053,81.6280642 L167.877084,81.5297822 L167.875406,80.204781 L167.875406,80.0418206 L167.524528,79.9522105 L163.715921,79.9623278 L163.367919,80.0522992 L163.367919,80.2152596 L163.366002,81.5391768 L162.964314,81.6399882 L162.964314,81.8159564 L162.962396,82.5855917 L162.707147,82.6488246 L162.707147,82.8258769 L162.706188,83.6103267 L162.314327,83.7031888 L161.923663,84.9273786 L161.885316,104.628958 L161.448157,106.423328 L161.40909,124.759075 L161.330958,124.750042 L161.329999,124.750042 L161.329999,124.392686 L161.242759,124.381484 L160.101207,124.364863 L160.008455,124.372451 L159.976579,124.489161 L159.976579,124.734143 L159.811206,124.748235 L159.776693,124.880844 L159.776693,125.086803 L159.642957,125.098365 L159.605808,125.242536 L159.605808,125.446688 L159.454097,125.459696 L159.413113,125.618321 L159.413113,125.956888 L159.26212,125.968451 L159.2185,126.139721 L159.224013,136.217608 L159.130301,137.335566 L159.052169,108.6307 L159.047615,106.877882 L159.035871,102.709567 L159.004954,102.709567 L159.001359,101.113929 L158.992251,98.0155142 L155.512712,97.9963637 L155.434579,97.6530991 L154.994783,97.6509311 L154.996461,97.9938344 L151.973495,97.9772131 L151.79518,97.6321419 L151.344359,97.6296126 L151.346276,97.9735998 L148.043135,97.9558946 L148.066622,101.069846 L148.078606,102.671988 L147.794836,102.670543 L147.826712,106.861623 L147.840373,108.623473 L147.997597,129.196583 L143.892757,129.090713 L143.671062,129.151778 L143.671062,130.638655 L143.580226,130.636487 L141.16866,131.174509 L141.16866,135.36053 L139.527155,134.998838 L138.245636,135.024854 L138.215437,125.676134 L138.203694,125.650479 L138.197462,105.497959 L137.239259,103.465471 L137.212895,103.463665 L137.212895,101.84454 L137.082035,101.55692 L125.863768,102.039659 L125.863768,140.017366 L124.664935,140.055305 L124.667811,140.628738 L122.958,139.303014 L122.88514,74.6659363 L122.529948,74.1897019 L121.68463,73.749962 L120.395681,73.3799589 L118.748664,73.1100446 L116.862455,72.9615375 L115.97088,72.9564788 L115.969922,67.5224202 L115.575424,63 L113.640322,63.10587 L111.870594,63.3718097 L110.399974,63.7743326 L109.329365,64.2805575 L108.726594,64.8503766 L108.617543,65.4425983 L108.609395,74.9253721 L108.54756,148.887683 L108.185896,148.942967 L107.722134,149.061483 L107.654067,135.74065 L107.473116,133.272759 L107.259569,131.065749 L107.031403,129.406516 L106.750509,128.30265 L106.480639,127.528678 L104.7773,127.318022 L104.026411,127.356685 L103.761815,128.119816 L103.489309,129.216456 L103.276721,130.87605 L103.103919,132.847111 L103.026505,110.517209 L102.999422,108.917235 L102.996546,108.735486 L102.987439,108.49231 L102.933992,106.958098 L102.839322,105.18613 L102.713975,103.419944 L102.556751,101.661345 L102.368609,99.9103346 L102.148591,98.167996 L101.898615,96.4350519 L101.617721,94.7125865 L101.305909,93.0016837 L100.964378,91.3023435 L100.670542,89.9744516 L100.69427,89.8649683 L100.782468,89.4425722 L100.82513,89.2362522 L100.833279,89.1907244 L100.838791,89.1455581 L100.588814,89.1437514 L100.5706,88.7354472 L100.545194,88.2682461 L100.515236,87.8017676 L100.479764,87.3356505 L100.438781,86.8709787 L100.393483,86.4066682 L100.343392,85.9434417 L100.288028,85.4816606 L100.227151,85.0209634 L100.16244,84.5613502 L100.091737,84.102821 L100.0172,83.6464598 L92.13467,83.5926215 L92.0591738,84.0489827 L91.9891899,84.5067892 L91.9237598,84.9664024 L91.8628835,85.4263769 L91.8075195,85.8881581 L91.7567093,86.3513846 L91.7102132,86.815695 L91.6701882,87.2803668 L91.6339979,87.7468453 L91.6037994,88.2136851 L91.5774357,88.6805249 L91.5594604,89.0902744 L91.320269,89.0884677 L91.3648477,90.4094943 L91.1831774,91.2474211 L91.0074987,92.0947426 L90.8394896,92.945316 L90.6796292,93.7987801 L90.5257606,94.6554962 L90.3814788,95.5154643 L90.2441475,96.3779616 L90.114246,97.243711 L89.9912949,98.112351 L89.877691,98.9824363 L89.7715169,99.8557736 L89.581458,101.608591 L89.4232754,103.369357 L89.2960102,105.138434 L89.2006213,106.913293 L89.1378276,108.693933 L89.1296788,109.165108 L89.106191,110.478547 L89.0280584,131.213894 L86.7092443,131.101159 L86.8736584,75.5573402 L86.8947494,68.4694691 L70.46724,68.203168 L70.4571738,69.0801187 L70.4943228,76.0465825 L70.7898368,130.83811 L70.2381148,130.836303 L70.2390735,127.891816 L70.2290073,127.880615 L70.2071973,127.870136 L70.1736434,127.86038 L70.128106,127.849902 L69.2892585,127.824247 L69.2892585,125.089693 L69.2827874,125.057173 L69.2573823,125.025015 L69.2128035,124.992495 L69.1473734,124.959253 L69.0620507,124.92601 L68.1656822,124.869281 L68.1630459,122.72984 L68.1594508,122.668413 L68.1374011,122.606265 L68.0983348,122.54267 L68.0412931,122.477992 L67.9648382,122.412952 L64.6509114,122.109796 L64.6509114,121.87493 L64.652589,121.863368 L64.6545064,121.792186 L64.6545064,121.667165 L64.6554651,121.496978 L64.6545064,121.292465 L64.6545064,121.068078 L64.652589,120.837549 L64.6516304,120.617859 L64.6499527,120.422379 L64.6480353,120.2652 L64.6461179,120.15644 L64.6444402,120.104047 L64.5435389,120.103685 L64.4745137,119.283825 L62.0365833,119.275153 L62.0531206,122.097149 L58.8144504,122.388382 L58.793599,122.453783 L58.7861692,122.517738 L58.8063016,124.840375 L57.781949,124.905053 L57.7536678,124.938296 L57.7390479,124.970815 L57.7390479,125.004058 L57.7646927,127.80871 L56.7820428,127.838339 L56.7403401,127.848095 L56.7120589,127.858574 L56.6983977,127.869052 L56.697439,127.879531 L56.7273979,130.83811 L56.0304355,130.840639 L55.883038,130.841723 L55.8259963,130.842446 L55.7785415,130.84353 L55.7421116,130.84353 L55.7167065,130.844614 L55.7030453,130.845337 L55.7013676,130.845698 L55.7377975,134.190901 L54.8706689,134.222698 L55.0660005,151.350155 L53.8769942,151.621153 L53.8935314,152.944347 L51.1821368,152.944347 L51.1821368,155.835358 L51.1821368,166.634099 L51.1821368,276.168375 L313.86075,276.168375 L313.86075,113.080854 L312.482643,112.758546 Z" id="Fill-1" fill="url(#linearGradient-1)"></path>
                <path d="M353.630856,183.201093 L353.630856,178.460067 L352.875893,159.980149 L351.670349,159.980149 L351.670349,156.649037 L346.649248,156.649037 L346.649248,155.338128 L344.506592,155.338128 L344.506592,156.649037 L340.997813,156.649037 L340.997813,151.411904 L335.487783,151.411904 L335.487783,150.273711 L326.737406,150.273711 L326.737406,129.90114 L324.268798,129.90114 L323.003337,129.652544 L322.674988,128.788963 L320.980516,129.221838 L320.450843,128.141458 L320.103321,129.652544 L318.919348,129.190402 L317.979839,129.652544 L317.979839,128.542535 L317.692234,129.652544 L315.794042,129.652544 L313.905437,129.90114 L313.905437,160.758095 C313.53155,160.755565 313.157664,160.753759 312.778984,160.753759 C312.522537,160.753759 312.014435,139.611914 312.014435,139.611914 L309.478719,139.611914 L306.348619,140.30567 L306.348619,141.115051 L304.282658,141.115051 L304.282658,142.674556 L303.479761,148.513306 L301.679834,148.513306 L301.679834,153.369235 L302.022563,161.149055 C301.322725,161.207229 300.666027,161.270823 300.057263,161.339476 L300.057263,157.799154 L299.568335,154.558737 L299.151308,152.974661 L296.749808,147.738612 L294.010371,152.343777 L293.715576,154.558737 L293.190698,157.799154 L292.191271,158.949271 L291.124736,158.949271 L291.124736,158.175661 L289.705886,158.175661 L288.656128,157.431319 L287.481741,158.175661 L287.481741,155.384017 L284.950819,155.384017 L282.666757,154.918622 L280.814102,155.384017 L280.814102,158.175661 L278.918307,158.175661 L278.918307,145.821389 L279.227482,145.08066 L279.227482,141.666081 L278.105823,141.370151 L279.289797,141.346665 L278.67624,140.173422 L278.628306,138.578507 L278.597148,139.604687 L278.309544,140.9763 L278.105823,137.038152 L278.055493,135.901405 L277.945244,135.015782 L277.942847,134.251928 L277.758301,132.379149 L277.48268,133.946242 L276.897883,134.700701 L276.897883,132.451415 L276.770858,126.641572 L276.698956,125.806175 L276.631849,124.707728 L276.622262,123.802594 L276.540774,122.799538 L276.488046,123.572064 L276.461682,124.351094 L276.281929,122.722214 L276.190854,121.832978 C276.169284,120.901827 275.881679,120.103647 275.474239,119.755324 L275.440685,117.664662 C275.239362,116.805055 275.172254,116.646792 275.095559,116.581391 L275.073989,115.540758 L275.050022,114.300308 C275.34242,113.571142 275.399941,113.364099 275.246552,113.302311 C275.076386,113.032758 275.016468,112.491846 275.016468,112.491846 C274.791178,113.186686 274.997294,113.453348 274.997294,113.453348 C274.767211,114.196245 274.824731,114.256948 274.91341,114.306451 C274.932583,114.317291 274.96374,115.152327 274.96374,115.152327 L274.937377,116.580669 C274.649772,117.111464 274.577871,117.250938 274.54911,117.41426 L274.592251,119.270417 C274.14886,120.102563 273.861255,120.901105 273.861255,121.827196 L273.674312,122.722214 L273.751007,124.351094 L273.542493,123.571342 L273.489766,122.799538 L273.437038,123.572787 L273.410674,124.351094 L273.401087,125.806175 L273.259682,126.641211 L273.259682,131.960005 L273.135053,134.700701 L272.701249,133.946242 L272.447198,132.379149 L272.171577,133.946242 L271.975047,134.700701 L272.087692,135.901405 L271.927113,137.038152 L271.927113,141.195989 L271.452565,140.174506 L271.404631,138.578507 L271.371077,139.604687 L271.083472,140.9763 L270.803057,144.976958 L271.112232,145.821389 L271.114629,168.879373 L269.643051,168.879373 L269.643051,149.987175 L265.81551,149.987175 L265.81551,160.936954 L265.173192,166.179868 L264.765752,165.156578 L262.603922,165.156578 L262.611112,164.040426 L261.815406,163.319571 L262.611112,162.599077 L261.815406,161.878221 L262.611112,161.158449 L261.815406,160.435426 L262.611112,159.716016 L261.815406,158.99516 L262.611112,158.273582 L261.815406,157.552726 L262.611112,156.832232 L261.815406,156.110293 L262.611112,155.390882 L261.815406,154.670027 L262.611112,153.949171 L261.815406,153.227593 L262.611112,152.506737 L261.815406,151.786243 L262.611112,151.065387 L261.815406,150.344532 L262.611112,149.622954 L261.815406,148.902098 L262.611112,148.182688 L261.815406,145.010923 L261.336064,143.377345 L259.550517,143.377345 L256.297946,143.975348 L255.271916,143.739038 L252.317975,143.491887 L252.324685,142.313587 L251.872666,141.538893 L252.324685,140.763115 L251.872666,139.988421 L252.324685,139.212643 L251.872666,138.439394 L252.324685,137.662171 L251.872666,136.887839 L252.324685,136.112783 L251.872666,135.337005 L252.324685,134.562673 L251.872666,133.786895 L252.324685,133.012201 L251.872666,132.237146 L252.324685,131.461368 L251.872666,129.707467 L252.298561,123.338283 L250.919496,123.338283 L250.919496,121.420338 L248.540525,121.420338 L248.540525,120.64456 C245.553748,121.195228 243.634945,122.284642 242.377632,123.706118 L242.377632,124.481896 L242.782436,126.481864 L242.27026,128.971074 L241.525123,126.172564 L239.516683,126.172564 L239.516683,107.861749 L238.604736,103.663804 L237.508482,103.663804 L237.508482,96.8581325 L235.557323,96.8581325 L233.814677,96.4657269 L231.529417,96.0722373 L231.529417,96.8581325 L228.178102,96.8581325 L228.178102,95.8608586 L225.625369,95.8608586 L225.625369,103.663804 L224.843084,120.80752 L223.993451,139.235046 L223.066644,150.035594 L222.219409,154.228119 L221.069469,154.228119 L221.069469,162.577397 L219.955239,162.577397 L219.955239,158.27033 L218.696489,158.27033 L218.696489,153.32985 L217.576987,153.32985 L217.576987,127.850225 L216.989314,127.038314 L216.201037,126.423328 L215.335107,125.429306 L215.123238,124.535734 L214.912328,123.083906 L214.75798,124.535734 L212.469844,125.029313 L212.469844,126.423328 L211.585459,127.850225 L211.473533,128.704773 L210.586032,148.030929 L209.453348,148.030929 L209.453348,152.822902 L206.616366,152.822902 L206.616366,158.144225 L205.273971,158.144225 L205.273971,160.283667 L204.802538,161.184465 L203.302919,161.184465 L203.302919,159.831642 L201.871845,159.831642 L202.056871,158.65587 L201.871845,157.661848 L202.056871,156.666742 L201.871845,155.673082 L202.056871,154.67906 L201.871845,153.685038 L202.056871,152.690294 L201.871845,151.697356 L202.056871,150.703334 L201.871845,149.709312 L202.056871,148.714567 L201.871845,147.720545 L202.056871,146.727607 L201.871845,145.732863 L202.056871,144.738841 L201.871845,143.744819 L202.056871,142.750797 L201.871845,141.757137 L202.056871,140.762031 L201.871845,138.522139 L200.199663,138.522139 L200.199663,136.892175 L199.165483,136.608891 L199.165483,135.827332 L198.954334,136.608891 L197.284548,136.608891 L196.508973,136.075566 L196.508973,136.892175 L195.121759,136.892175 L195.121759,128.087619 L194.933858,136.892175 L193.405717,136.892175 L193.405717,138.522139 L189.470324,138.522139 L189.470324,172.392956 L188.01768,172.392956 L188.612782,171.53877 L188.01768,167.593034 L188.612782,166.803887 L188.01768,166.01474 L188.612782,165.226315 L188.01768,164.437168 L188.612782,163.64766 L188.01768,162.858512 L188.612782,162.069365 L188.01768,161.279857 L188.612782,160.49071 L188.01768,159.701562 L188.612782,158.913138 L188.01768,158.123991 L188.612782,157.334482 L188.01768,156.544251 L188.612782,155.756188 L188.01768,154.96668 L188.612782,154.177532 L188.01768,153.388385 L188.612782,152.598877 L188.01768,151.80973 L188.612782,151.02275 L188.01768,150.231074 L188.612782,149.443011 L188.01768,148.653864 L188.612782,147.865439 L188.01768,147.075208 L188.612782,146.286061 L188.01768,145.496552 L188.612782,144.708489 L188.01768,143.919342 L188.612782,143.129834 L188.01768,142.339241 L188.612782,141.551539 L188.01768,140.762031 L188.612782,139.973968 L188.01768,139.183375 L188.612782,138.395312 L188.01768,137.605081 L188.612782,136.816656 L188.01768,136.027509 L188.612782,135.239085 L188.01768,134.448854 L188.612782,133.66079 L188.01768,132.869114 L188.612782,132.082135 L188.01768,131.292988 L188.612782,130.503479 L188.01768,129.714332 L188.612782,128.925907 L188.01768,128.135676 L188.612782,127.346529 L188.01768,126.557021 L188.612782,125.768958 L188.01768,124.97981 L188.612782,124.190302 L188.01768,123.400071 L188.612782,122.612008 L188.01768,121.822499 L188.612782,121.033352 L188.01768,120.243843 L188.612782,119.45578 L188.01768,118.666633 L188.612782,117.877486 L185.904264,117.877486 L185.904264,115.489449 L186.756533,113.900676 L175.437844,113.900676 L175.437844,115.489449 L176.291072,117.877486 L174.176936,117.877486 L173.581834,118.666633 L174.176936,119.45578 L173.581834,120.243843 L174.176936,121.033352 L173.581834,121.822499 L174.176936,122.612008 L173.581834,123.400071 L174.176936,124.190302 L173.581834,124.97981 L174.176936,125.768958 L173.581834,126.557021 L174.176936,127.346529 L173.581834,128.135676 L174.176936,128.925907 L173.581834,129.714332 L174.176936,130.503479 L173.581834,131.292988 L174.176936,132.082135 L173.581834,132.869114 L174.176936,133.66079 L173.581834,134.448854 L173.381709,133.627909 L169.970716,133.627909 L169.970716,132.543193 L168.585898,132.543193 L167.475025,132.087916 L167.260519,109.476538 L167.045295,132.087916 L165.212773,132.087916 L165.212773,133.627909 L160.415284,133.627909 L160.415284,136.03871 L161.290562,141.101321 L161.290562,167.98544 L160.415284,171.576709 L160.415284,175.55352 L160.102754,148.347816 L158.481381,148.347816 L158.481381,125.767874 L155.195496,124.112977 L153.172196,124.112977 L153.172196,118.199071 L152.976145,124.112977 L151.979834,85.7775526 L149.935683,84.7723294 L149.079579,84.2935657 L145.09793,84.7723294 L142.909736,85.4671691 L138.506746,85.7775526 L138.506746,90.0365624 L137.400665,90.0365624 L137.655675,91.8255127 L137.298566,93.6155471 L136.940737,95.4063041 L136.582669,97.1952544 L136.223882,98.9863727 L135.866054,100.776046 L135.508705,102.56608 L135.508705,104.357198 L134.537799,104.921598 L134.793527,106.147233 L134.43474,107.935822 L134.077631,141.029777 L130.251048,141.029777 L130.251048,152.984778 L129.862542,134.790673 L124.583076,134.790673 L124.583076,137.240498 L123.807502,132.687003 L121.149793,132.687003 L121.149793,171.605977 L120.404657,125.772571 L113.906705,124.473586 L108.987703,125.503741 L107.400604,125.772571 L107.400604,167.108489 L106.814609,183.201093 L105.517511,183.201093 L105.517511,161.601803 L104.533184,160.031458 L104.533184,133.298737 L96.7556295,133.312106 L95.6181523,132.256296 L83.6187988,133.026654 L77.8539994,131.386211 L73.9066229,131.463897 L71.2831873,129.944861 L70.7043826,131.305273 L70.7043826,136.316574 L69.5096241,136.316574 L69.5096241,135.52815 L66.8830729,133.416531 L65.1533694,135.52815 L64.6680362,134.04886 L64.4815724,135.52815 L64.2555629,136.316574 L62.4712145,136.316574 L62.4712145,138.677512 L61.6342844,139.841359 L61.2814892,140.91379 L61.6342844,141.987666 L61.2814892,143.059013 L61.6342844,144.131805 L61.2814892,145.204235 L61.6342844,146.277028 L61.2814892,147.348374 L61.6342844,148.421166 L61.2814892,149.493597 L61.6342844,150.566389 L61.2814892,151.63882 L61.6342844,152.710167 L61.2814892,153.782959 L61.6342844,154.855751 L61.2814892,155.928182 L61.6342844,157.000612 L61.2814892,158.073404 L61.6342844,159.144751 L61.2814892,160.218627 L61.6342844,161.289974 L61.2814892,162.362766 L61.6342844,163.434474 L61.2814892,164.507989 L61.6342844,165.553681 L60.3784099,165.553681 L60.165822,166.57661 L58.2357538,167.124388 L57.2648478,166.678144 L55.9864443,166.236236 L55.9864443,167.124388 L55.8560634,168.502504 L55.8560634,170.447188 L55.8560634,176.893697 L55.2115889,174.945038 L54.8806036,174.115422 L54.3310387,174.945038 L54.1385831,175.773932 C53.595729,176.497317 52.9922382,176.947896 52.3614249,177.275262 L52.3614249,153.189292 L51.6670988,152.142516 L50.6705481,142.695875 L49.9139076,141.777371 L49.4544589,140.225815 L49.912949,139.394754 L48.2985271,139.394754 L48.2985271,138.479863 C47.1723145,137.723236 46.7078326,136.992263 45.9492748,136.623344 L44.9230049,136.235636 L43.8030237,135.930672 L43.8030237,137.48259 L43.1235572,136.651528 L41.6555742,136.651528 L41.3993662,137.593518 L41.6555742,138.342558 L41.3073326,139.394754 L39.0328577,139.394754 L39.0328577,140.225815 L39.2893053,141.173587 L38.600971,141.741238 L38.0528441,142.43391 L38.0528441,143.820337 L38.0528441,145.206765 L38.0528441,146.591747 L38.0528441,147.978174 L38.0528441,149.364241 L38.0528441,150.749584 L38.0528441,152.13565 L38.0528441,153.523162 L38.0528441,154.90706 L38.0528441,156.293487 L38.0528441,157.680999 L38.0528441,159.066342 L38.0528441,160.451325 L38.0528441,161.838836 L38.0528441,163.224179 L38.0528441,164.610246 L38.0528441,165.997757 L38.0528441,167.382739 L38.0528441,168.768083 L38.0528441,170.155594 L38.0528441,171.540576 L38.0528441,172.927004 L38.0528441,174.313431 L38.0528441,175.699498 L37.2870962,179.657157 L36.8544906,181.366253 L35.4361194,181.085138 L35.4361194,174.2614 L34.0340458,173.966915 L33.87083,150.855093 L33.4799271,149.144913 L33.0116105,148.026231 L32.7379066,146.788672 C32.2180608,145.492216 31.3820894,144.746429 30.2357444,144.549865 C28.6196449,144.489161 26.3585915,144.22286 24.9205672,145.905941 L24.0220418,146.376032 L24.0220418,147.554333 L22.6930677,148.026231 L22.6930677,150.246973 L22.6930677,151.270985 L22.6930677,152.295359 L22.6930677,153.319732 L22.6930677,154.342661 L22.6930677,155.368118 L22.6930677,156.392492 L22.6930677,157.415782 L22.6930677,158.439794 L22.6930677,159.465252 L22.6930677,160.488542 L22.6930677,161.512554 L22.6930677,162.536928 L22.6930677,163.561301 L22.6930677,164.586759 L22.6930677,165.610771 L22.6930677,166.634061 L22.6930677,167.659519 L22.6930677,168.682809 L22.6930677,169.706821 L22.6930677,170.731195 L22.6930677,171.757014 L22.6930677,172.779942 L22.6930677,173.803954 L22.6930677,174.828328 L22.6930677,175.852341 L22.6930677,176.877798 L22.6930677,177.902172 L22.6930677,178.9251 L22.6930677,179.949474 L22.6930677,180.973848 L22.6930677,181.998221 L22.6930677,183.023318 L19.3908847,183.201093 L19.3908847,200.856454 L19.3908847,338.523608 L354.929871,338.523608 L354.929871,183.201093 L353.630856,183.201093 Z" id="Fill-2" fill="url(#linearGradient-2)"></path>
                <path d="M289.396695,177.576166 L290.758024,176.733903 L291.697534,176.740769 L291.697534,177.576166 L289.396695,177.576166 Z M258.625373,177.502093 L257.781732,177.55268 L257.779336,176.698493 L258.632563,176.695602 L258.625373,177.502093 Z M249.623102,174.378024 L249.621424,171.992878 L251.042911,171.994684 L251.044589,174.37694 L249.623102,174.378024 Z M249.619507,168.933487 L251.040275,168.938546 L251.041952,171.22541 L249.621424,171.223242 L249.619507,168.933487 Z M249.618548,165.878794 L251.035961,165.888189 L251.037878,168.018597 L249.619507,168.011732 L249.618548,165.878794 Z M248.137383,174.027895 L248.137383,174.37947 L248.020184,174.37947 L248.020184,174.052465 L248.022581,174.052465 L248.049184,174.040902 L248.074829,174.027895 L248.049184,174.013803 L248.022581,174.00224 L247.995498,173.993929 L247.968655,173.987425 L247.945886,173.984535 L247.918324,173.98056 L247.890762,173.979115 L247.86272,173.98056 L247.836596,173.984535 L247.809993,173.990316 L247.78291,173.999711 L247.756307,174.009828 L247.730422,174.023559 L247.756307,174.036928 L247.78291,174.04849 L247.785067,174.048852 L247.785067,174.37947 L247.690877,174.37947 L247.690877,174.257701 L247.663554,174.251197 L247.161204,174.251197 L247.161204,174.099799 L247.162882,174.098354 L247.191403,174.086792 L247.218965,174.071616 L247.191403,174.057524 L247.162882,174.044516 L247.134601,174.035483 L247.104642,174.030063 L247.085948,174.025365 L247.055989,174.021391 L247.027468,174.020307 L246.998708,174.021391 L246.998708,171.989626 L248.137383,171.991071 L248.137383,174.019584 L248.129474,174.023559 L248.137383,174.027895 Z M246.998708,168.922647 L248.135945,168.927706 L248.137383,171.220713 L246.998708,171.218907 L246.998708,168.922647 Z M246.999427,165.860727 L248.135945,165.869038 L248.135945,168.004144 L246.998708,167.999446 L246.999427,165.860727 Z M246.4072,167.996194 L244.955275,167.989329 L244.956234,166.886908 L245.077028,166.869203 L245.111061,166.860892 L245.444922,166.673 L245.463617,166.652765 L245.757453,166.338407 L245.983942,165.92938 L246.006231,165.854946 L246.4072,165.857114 L246.4072,167.996194 Z M246.405523,171.217461 L244.953118,171.213848 L244.954077,168.915059 L246.4072,168.920118 L246.405523,171.217461 Z M246.404564,174.00224 L246.386589,174.009828 L246.360944,174.024281 L246.386589,174.037651 L246.404564,174.044516 L246.404564,174.306481 L246.241348,174.306481 L246.241348,174.052826 L246.243265,174.052465 L246.26939,174.041264 L246.295753,174.027895 L246.26939,174.014525 L246.243265,174.002963 L246.216662,173.994652 L246.20372,173.990316 L246.176158,173.984535 L246.148596,173.981283 L246.120794,173.979838 L246.09443,173.981283 L246.066868,173.984535 L246.040025,173.9914 L246.012463,173.999711 L245.986578,174.009828 L245.973876,174.017055 L245.808023,174.014887 L245.783098,174.016332 L245.758412,174.020307 L245.734684,174.027895 L245.731808,174.028617 L245.719825,174.025365 L245.692742,174.021391 L245.667097,174.020307 L245.489741,174.017055 L245.463617,174.0185 L245.437013,174.022113 L245.411368,174.02934 L245.385484,174.038012 L245.371343,174.044516 L245.365352,174.042709 L245.336831,174.033676 L245.309269,174.027172 L245.280508,174.022836 L245.251987,174.021391 L245.156359,174.0185 L245.128078,174.019584 L245.100036,174.023559 L245.071995,174.030424 L245.043953,174.039457 L245.016391,174.051742 L244.9953,174.063305 L244.966779,174.05102 L244.950242,174.045961 L244.952159,171.987819 L246.405523,171.988903 L246.404564,174.00224 Z M244.02727,167.985354 L243.530912,167.982464 L242.000615,167.975237 L242.004929,165.827485 L243.495681,165.837602 L243.522284,165.927935 L243.532829,165.948531 L243.747814,166.337684 L244.028708,166.639396 L244.02727,167.985354 Z M244.026551,168.910362 L244.024154,171.212403 L243.527317,171.212041 L241.995102,171.208789 L241.999656,168.902774 L243.530193,168.908555 L243.530193,168.873868 L244.026551,168.876036 L244.026551,168.910362 Z M244.021518,174.021391 L243.968311,174.024281 L243.939311,174.028617 L243.91079,174.034399 L243.88179,174.043793 L243.854228,174.056078 L243.850633,174.057885 L243.839129,174.052465 L243.811567,174.04018 L243.783525,174.031147 L243.755963,174.024281 L243.727682,174.020307 L243.70012,174.0185 L243.594904,174.022113 L243.566383,174.023559 L243.537383,174.027895 L243.523243,174.031147 L243.510061,174.034399 L243.482019,174.043432 L243.470755,174.04849 L243.45206,174.038735 L243.424978,174.030063 L243.398374,174.022836 L243.370812,174.019584 L243.344209,174.017777 L243.192976,174.021391 L243.166373,174.022113 L243.138811,174.027172 L243.11772,174.032231 L243.100703,174.025365 L243.076017,174.018861 L243.050372,174.014525 L243.025447,174.012719 L242.861991,174.015609 L242.861991,173.533232 L242.856479,173.53251 L242.82628,173.531064 L242.773313,173.531064 L242.699015,173.530342 L242.602667,173.52998 L242.484989,173.52998 L241.991028,173.52998 L241.993664,171.983122 L243.526358,171.986374 L243.526358,171.97445 L244.023196,171.975534 L244.021518,174.021391 Z M230.195155,176.917459 L230.195155,176.947811 L228.3866,176.932997 L228.326922,176.955399 L228.332913,176.964433 L228.274434,176.964433 L228.225062,176.984306 L228.535195,177.395862 L226.851029,177.396223 L227.167155,176.955399 L227.161403,176.932997 L224.908019,176.951425 L224.908019,176.917459 L224.923118,172.829359 L224.848581,172.687356 L225.550337,171.618177 L227.552306,171.6189 L229.546366,171.619623 L230.261783,172.702171 L230.179097,172.831527 L230.195155,176.917459 Z M221.927474,171.855933 L221.882895,177.40345 L220.48202,177.40345 L220.391664,171.301651 L219.730413,171.302013 L219.947075,171.105449 L220.012745,171.161455 L221.71225,171.161816 L222.118012,171.856295 L221.927474,171.855933 Z M211.678196,128.702881 L211.619956,123.2681 L212.066942,123.850565 L212.073892,124.384252 L212.120868,128.700352 L211.678196,128.702881 Z M207.761498,128.726006 L207.725547,124.548296 L207.719795,123.878749 L208.512625,123.288334 L208.562237,128.721309 L207.761498,128.726006 Z M200.775815,128.768282 L200.747774,123.338921 L201.306686,123.920302 L201.309802,124.491928 L201.33281,128.76503 L200.775815,128.768282 Z M196.985423,128.790684 L196.970803,124.566724 L196.969365,123.948486 L197.648352,123.359516 L197.667286,128.785987 L196.985423,128.790684 Z M184.357174,175.442145 L193.768563,175.442145 L193.768563,177.576166 L184.350223,177.576166 L184.357174,175.442145 Z M161.8044,177.576166 L161.800805,176.43183 L158.142232,176.050265 L157.537543,176.014854 L157.245384,175.986309 L157.243706,174.294918 L157.245384,174.294918 L157.653304,174.285162 L157.653304,174.126538 L157.186185,174.11353 L156.509116,174.109917 C157.415311,172.680491 158.622053,171.568314 159.947192,171.568314 C162.280626,171.568314 164.245926,175.013967 164.851094,177.576166 L161.8044,177.576166 Z M136.261495,135.634296 L136.18504,135.634296 L135.612467,135.618397 L135.612467,135.610809 L135.605756,135.610809 L135.605756,133.470284 L136.261495,133.470284 L136.261495,135.634296 Z M136.261495,132.441935 L136.261495,132.978512 L135.605756,132.978512 L135.605756,132.441935 L136.261495,132.441935 Z M129.990511,132.979235 L129.499186,132.979235 L129.499186,132.443381 L129.990511,132.442658 L129.990511,132.979235 Z M129.989792,135.610809 L129.94018,135.610809 L129.94018,135.61912 L129.498467,135.632128 L129.498467,133.470645 L129.990511,133.470645 L129.989792,135.610809 Z M83.41746,170.07421 L83.4150633,169.18136 L83.4450221,169.18136 L83.4450221,169.105842 L83.4390303,169.101868 L83.4150633,169.101868 L83.4133856,168.405221 L83.4316005,168.405221 L83.4316005,168.363307 L83.4646751,168.310191 L83.4646751,168.28815 L83.4555676,168.272974 L83.4546089,168.024017 L83.4756999,167.994388 L83.4756999,167.952835 L83.5015844,167.999446 L83.5015844,168.116156 L83.498229,168.116156 L83.4910389,168.116518 L83.4910389,168.227446 L83.498229,168.227446 L83.498229,168.294654 L83.4910389,168.294654 L83.4910389,168.346685 L83.5291465,168.394381 L83.5291465,168.438102 L83.5363366,168.439186 L83.5603037,168.439186 L83.5612624,168.462311 L83.5629401,169.316137 L83.5629401,169.398882 L83.5653368,170.074932 L83.41746,170.07421 Z M83.2554426,170.055059 L80.4798161,170.096612 L80.4798161,168.391491 L80.4999485,168.391491 L80.5059402,168.390768 L80.5059402,168.355357 L80.5354197,168.317056 L80.5354197,168.274058 L80.5284693,168.274058 L80.5284693,168.220942 L80.5354197,168.220942 L80.5344611,168.1335 L80.529428,168.132055 L80.5265519,168.132055 L80.5265519,168.037386 L80.5476429,167.998362 L80.5476429,167.933684 L80.5591471,167.917063 L80.5591471,167.831066 L80.5531554,167.829259 L80.5514777,167.829259 L80.5514777,167.789513 L80.5641802,167.789513 L80.6001308,167.687256 L80.6507013,167.598007 L80.7139744,167.525019 L80.785636,167.471542 L80.8635289,167.439383 L80.9452566,167.43035 L81.025786,167.444442 L81.0495134,167.455282 L81.0684474,167.480575 L81.1266874,167.595478 L81.1681504,167.724473 L81.1832497,167.771085 L81.1832497,167.923928 L81.2009853,168.011009 L81.2009853,168.044251 L81.2079357,168.059789 L81.2079357,168.069545 L81.2115308,168.069906 L81.3062007,168.069906 L81.3062007,168.059789 L81.3213,168.044974 L81.3213,168.004144 L81.3258537,167.987522 L81.3387959,168.045697 L81.3387959,168.071712 L81.343829,168.08472 L81.343829,168.093031 L81.3462257,168.094115 L81.4233997,168.094115 L81.4233997,168.085443 L81.4361022,168.073158 L81.4361022,168.039915 L81.4550362,167.97596 L81.461028,167.97596 L81.461028,167.862502 L81.4761273,167.806134 L81.4957803,167.753018 L81.520706,167.702432 L81.5473095,167.65582 L81.578946,167.614267 L81.6134586,167.57705 L81.6506075,167.545253 L81.6887152,167.518876 L81.7304179,167.49828 L81.7728396,167.484188 L81.815501,167.4766 L81.8586417,167.475877 L81.9022618,167.4766 L81.9454025,167.484188 L81.9875845,167.49828 L82.0295269,167.518153 L82.0683536,167.54453 L82.1055025,167.576328 L82.1395358,167.613545 L82.1704533,167.655098 L82.1987344,167.701709 L82.2227015,167.752657 L82.2428338,167.805411 L82.2593711,167.86214 L82.2593711,167.97596 L82.2658422,167.97596 L82.2850159,168.039193 L82.2850159,168.072435 L82.2969994,168.08472 L82.2969994,168.093754 L82.3746527,168.093754 L82.3765701,168.093031 L82.3765701,168.08472 L82.3825619,168.071712 L82.3825619,168.058343 L82.3825619,168.059789 L82.3825619,168.069545 L82.4774715,168.069545 L82.4808268,168.068822 L82.4808268,168.058343 L82.4882566,168.043167 L82.4882566,168.010648 L82.5055129,167.922844 L82.5055129,167.769278 L82.5206122,167.723028 L82.5606372,167.593671 L82.6198359,167.477323 L82.6960511,167.441551 L82.7772995,167.426014 L82.8595066,167.43577 L82.9390772,167.466122 L83.0114578,167.51996 L83.0759292,167.593671 L83.1272187,167.683282 L83.1643677,167.786261 L83.1777893,167.786261 L83.1777893,167.82673 L83.1749132,167.82673 L83.1703595,167.828175 L83.1703595,167.913811 L83.1818637,167.931155 L83.1818637,167.996194 L83.2039134,168.035941 L83.2039134,168.131332 L83.2007976,168.131332 L83.1952852,168.131332 L83.1962439,168.220942 L83.2017563,168.220942 L83.2017563,168.275503 L83.1962439,168.275503 L83.1962439,168.318502 L83.2254837,168.356803 L83.2254837,168.391852 L83.2314755,168.392575 L83.2525665,168.392575 L83.2525665,168.41317 L83.2544839,169.105119 L83.2544839,169.171604 L83.2564012,170.056866 L83.2554426,170.055059 Z M80.3209145,169.093557 L80.2974267,169.093557 L80.2923936,169.097532 L80.2923936,169.172327 L80.3209145,169.172327 L80.3209145,170.056504 L80.1454755,170.055059 L80.1454755,168.437018 L80.1680045,168.437018 L80.176393,168.436296 L80.176393,168.392575 L80.2130626,168.344517 L80.2130626,168.29357 L80.2051535,168.29357 L80.2051535,168.226724 L80.2130626,168.226724 L80.2130626,168.11724 L80.2041948,168.11724 L80.2025171,168.11724 L80.2025171,168.000892 L80.2281619,167.952835 L80.2281619,167.903694 L80.2583604,167.903694 L80.2583604,167.996194 L80.2794514,168.025823 L80.2794514,168.272251 L80.2703439,168.287066 L80.2703439,168.308746 L80.3034185,168.361861 L80.3034185,168.404137 L80.3209145,168.404137 L80.3209145,169.093557 Z M63.9866369,177.576166 L64.0002982,175.5874 L65.6175961,175.590652 L67.2773157,175.593542 L68.9317626,175.59824 L70.4428864,175.600769 L70.4675725,177.576166 L63.9866369,177.576166 Z M310.47094,177.576166 L310.47094,176.731374 L311.628549,176.720534 L311.628549,176.147463 L310.585982,175.916934 L310.585982,175.133568 L311.920948,174.187964 L311.67169,173.697638 L311.654913,173.684269 L311.628549,173.684991 L311.630946,173.602247 L311.669293,173.599717 L311.67169,173.098912 L311.925741,173.041461 L312.445827,172.919331 L312.553678,172.288085 L312.481777,172.265683 L312.409876,172.227743 L312.335578,172.170653 L312.26128,172.095857 L312.186982,172.001911 L312.165412,171.972282 L312.170205,171.958913 L312.153428,171.952409 L312.110288,171.885201 L312.031196,171.74645 L311.952105,171.582044 L311.873014,171.391261 L311.791525,171.169404 L311.710037,170.917195 L311.623756,170.631382 L311.134828,170.655591 L311.182762,170.346292 L311.149208,170.262463 L310.911934,170.273303 L310.207302,170.319553 L309.260603,170.319553 L309.064073,170.317385 L307.935224,170.229221 L307.177864,170.114679 L306.885466,170.069151 L305.910006,169.838622 L305.322813,169.651813 L305.006448,169.548834 L304.169997,169.201234 L303.666689,168.943243 L303.393464,168.802324 L302.911726,168.502058 L302.729576,168.371979 L302.506682,168.209018 L301.648661,167.514901 L301.57676,167.449139 L301.607917,166.738401 L301.416181,166.594591 L301.418577,166.552676 L301.416181,166.506787 L301.411387,166.453672 L301.404197,166.408144 L301.39461,166.364784 L301.38023,166.325038 L301.361056,166.287821 L301.339486,166.253856 L301.301139,166.208328 L301.277172,166.181589 L301.255601,166.160271 L301.229238,166.140036 L301.20527,166.121247 L301.181303,166.105349 L301.126179,166.075358 L301.104609,166.063073 L301.083038,166.052233 L301.059071,166.044645 L301.00155,166.026578 L300.984773,166.022242 L300.920062,166.01068 L300.910475,166.01068 L300.879318,166.008151 L300.876922,166.006705 L300.867335,165.991891 L300.855351,165.974547 L300.845764,165.955035 L300.838574,165.933716 L300.831384,165.911314 L300.826591,165.887827 L300.821797,165.911314 L300.817004,165.934439 L300.809814,165.955757 L300.79783,165.975992 L300.79064,165.991891 L300.778657,166.007428 L300.77626,166.009235 L300.713946,166.017545 L300.654028,166.03236 L300.634854,166.038141 L300.615681,166.045006 L300.555763,166.070299 L300.531796,166.082223 L300.510225,166.094509 L300.486258,166.110407 L300.435928,166.145818 L300.41196,166.16533 L300.385597,166.187732 L300.36163,166.210857 L300.337663,166.238318 L300.318489,166.271922 L300.289728,166.320341 L300.272951,166.359003 L300.256174,166.399111 L300.246588,166.443916 L300.239398,166.488721 L300.237001,166.535694 L300.239398,166.581583 L300.239398,166.596759 L300.050058,166.784651 L300.081215,167.483104 L299.551543,167.932239 L299.376583,168.063041 L298.844514,168.450749 L298.084758,168.927706 L297.79955,169.079465 L297.272274,169.354799 L296.404666,169.731668 L296.078714,169.84621 L295.477141,170.051807 L294.489697,170.313049 L294.194902,170.369417 L293.437543,170.507807 L292.315884,170.633911 L292.124147,170.641499 L291.179845,170.677994 L290.489593,170.659566 L290.290667,170.658121 L290.28827,170.736891 L290.331411,171.026317 L289.835292,171.01909 L289.854466,171.29045 L289.866449,171.528206 L289.878433,171.736333 L289.885623,171.916637 L289.88802,172.070925 L289.890417,172.202811 L289.890417,172.312294 L289.88802,172.402627 L289.88083,172.473087 L289.87364,172.526925 L289.864053,172.563781 L289.854466,172.585822 L289.947937,173.173346 L290.456039,173.277771 L290.592652,173.305232 L290.592652,173.448681 L290.537527,173.561055 L290.535131,173.580567 L290.592652,173.628985 L290.592652,173.647052 L290.475213,173.892395 L290.472816,173.907571 L290.515957,173.941536 L290.434469,174.114253 L290.429676,174.129067 L290.453643,174.145689 L290.355378,174.349118 L291.563318,175.230043 L291.563318,175.870322 L291.563318,175.942588 L290.91381,175.955235 L290.822736,176.041232 L289.329587,176.956483 L288.950907,176.956483 L288.948511,176.956483 L288.941321,176.961903 L288.838262,176.961903 L288.833469,176.961903 L287.826852,177.576166 L285.629071,177.576166 L285.629071,177.259279 L285.633865,172.405157 L284.656008,171.032098 L284.658405,166.127751 L283.714102,164.798775 L283.716499,161.250865 L282.393517,159.381699 L282.371947,159.505997 L282.259301,159.505274 L282.259301,158.554612 L280.202927,161.404792 L280.198133,162.346782 L280.195737,162.936475 L280.202927,162.936475 L280.202927,163.667809 L280.202927,164.735542 L280.195737,164.746382 L280.195737,162.936475 L280.19334,163.582535 L280.19334,164.751441 L280.190943,164.752525 L278.700191,166.821507 L278.704985,170.206818 L277.612086,171.726577 L277.518615,153.986664 L275.387942,153.967152 L275.294471,154.202379 L273.235699,154.184312 L273.202145,154.361003 L271.287176,154.344382 L271.114614,156.004337 L271.076266,156.003615 L271.052299,156.231615 L271.066679,177.467405 L265.621361,177.473909 L265.690865,155.907139 L265.376897,153.883324 L265.364913,153.398779 L265.326566,153.123806 L265.319376,153.06527 L264.847225,153.061657 L264.60276,153.095983 L264.427801,153.490557 L263.471515,153.48333 L263.437961,153.338075 L260.897451,153.314227 L260.895055,153.459121 L258.81711,153.440332 L258.63496,176.256946 L258.548678,176.207805 L258.117271,176.124338 L257.776939,176.125783 L257.769749,173.347508 L257.745782,164.864538 L257.740988,164.002401 L251.350409,163.94784 L251.035002,164.355783 L251.035002,164.812867 L249.617589,164.80275 L249.617589,164.510794 L249.15862,164.50682 L249.091991,164.622084 L249.091991,164.798775 L248.933569,164.797691 L248.93261,163.773318 L248.756213,163.771511 L248.756213,163.599156 L248.331516,163.595904 L248.309946,163.64649 L248.309946,163.767536 L248.179086,163.766814 L248.134986,163.86618 L248.134986,164.790465 L246.999427,164.782154 L246.516011,164.778179 L246.159141,164.77565 L246.126786,164.430218 L246.056083,164.1921 L245.9849,163.953622 L245.75937,163.543872 L245.466013,163.230598 L245.436055,163.200246 L245.106987,163.01669 L245.06792,163.001876 L245.005846,162.98959 L244.927473,162.980196 L244.755629,162.964659 L244.558141,162.979473 L244.483843,162.98959 L244.428719,163.001153 L244.396603,163.015968 L244.059626,163.198801 L243.770343,163.502319 L243.547929,163.903035 L243.524681,163.951815 L243.459251,164.168252 L243.381837,164.427327 L243.35068,164.75397 L242.005648,164.743853 L242.008524,163.336107 L241.838597,162.485172 L237.664013,162.444703 L237.657063,164.444671 L237.657063,164.611244 L237.46221,164.609799 L237.427458,176.383773 L236.883405,176.436166 L236.86543,175.034202 L235.539332,175.033118 L235.304695,175.099603 L235.315719,176.061105 L233.627479,176.061105 L233.447007,176.096877 L233.457552,177.394055 L233.337717,177.393333 L233.290742,171.860269 L233.098046,171.860269 L237.263044,164.817203 L236.075715,164.816842 L236.066847,164.100322 L235.520878,164.365539 L235.137165,163.819207 L234.98042,164.628588 L234.982337,164.815397 L233.678768,164.814674 L233.676132,164.569691 L232.798698,164.568969 L232.778326,162.065305 L230.936217,162.06386 L230.813266,162.57948 L230.817819,163.647213 L227.648654,163.644684 L227.6,163.630953 L227.550389,163.644684 L224.371636,163.641432 L224.376669,162.573698 L224.275528,162.058079 L222.431262,162.055188 L222.412328,164.559213 L221.543282,164.559213 L221.540406,164.804557 L220.249779,164.803473 L220.251936,164.61558 L220.109332,163.805837 L219.716272,164.354699 L219.162873,164.085508 L219.153765,164.80275 L217.990164,164.802027 L219.771636,167.847687 L219.757016,169.188948 L217.783568,170.976453 L217.782609,170.871306 L216.794207,170.873113 L216.79229,170.730026 L216.482395,170.268244 L213.968489,170.270774 L213.922952,166.332626 L213.654281,143.327397 L213.580942,143.327758 L213.478842,134.521396 L213.374346,134.521757 L213.236535,122.616981 L210.773679,121.538769 L210.19823,121.745089 L209.740459,121.545996 L206.644872,122.661063 L206.647508,123.015529 L206.555235,123.049494 L206.652062,135.095551 L206.584954,135.322106 L206.649425,143.165881 L202.612891,143.182503 L202.561362,134.578848 L202.512709,134.57957 L202.442006,122.689247 L199.779025,121.613926 L199.243121,121.819162 L198.748201,121.619707 L195.866401,122.732246 L195.867359,123.11345 L195.849384,123.119954 L195.880302,135.152641 L195.868318,135.376667 L195.891327,144.147257 L195.882459,144.270109 L195.93998,166.68673 L195.951005,170.894431 L195.376993,170.895515 L195.330976,171.099667 L195.331935,171.326945 L194.036275,171.32839 L193.99625,171.83606 L193.992655,171.890982 L193.928903,172.699641 L184.366761,172.699641 L184.371794,171.084491 L184.404868,160.661534 L184.375868,160.600108 L184.394802,155.334068 L184.358852,155.23687 L184.373232,150.733239 L184.315231,150.723122 L184.31619,150.546792 L180.81532,149.9029 L180.375285,150.002266 L180.172763,149.965049 L180.193614,146.044245 L180.116201,146.027624 L180.117639,145.854185 L176.475603,145.097196 L176.049948,145.211738 L175.904947,145.18247 L175.934187,141.269977 L175.825855,141.244684 L175.826814,141.024633 L172.16129,140.176951 L171.751693,140.307752 L171.202128,140.180925 L168.479709,141.058598 L168.425543,145.74687 L168.322245,145.747592 L168.264005,150.875965 L168.18731,150.875965 L167.956268,170.914304 L167.879573,177.576166 L166.741856,177.576166 L166.727237,177.546176 L166.726278,175.369156 L166.469111,174.848116 L165.74914,174.8492 L163.837767,169.302768 L163.009465,166.007428 L162.45247,163.134845 L162.105187,160.650694 L161.737053,156.281478 L161.646937,152.779818 L161.653887,151.416155 L161.970732,151.418323 L162.402858,151.361955 L162.511189,149.094964 L162.501842,148.562 L161.97936,148.488289 L161.412778,148.486843 L161.313794,142.336988 L161.123496,136.282524 L160.9749,129.304497 L160.971545,129.041448 L161.080355,129.010735 L161.281918,128.942805 L161.419249,128.860783 L161.482283,128.769366 L161.483002,128.405867 L161.466704,128.310475 L161.372514,128.216891 L161.205703,128.133062 L160.959561,128.048149 L160.939429,126.495509 L160.940387,126.2704 L160.969627,126.263896 L161.134281,126.204999 L161.245248,126.133455 L161.296298,126.053963 L161.298935,125.458489 L161.324579,125.449094 L161.463349,125.358762 L161.527101,125.258312 L161.537886,123.112366 L161.521109,123.002883 L161.425721,122.896651 L161.257232,122.800176 L161.027148,122.723212 L160.750328,122.667567 L160.684659,122.661063 L160.649187,115.335798 L160.671237,111.414271 L160.664047,111.215178 L160.501311,111.023672 L160.497716,107.425898 L160.496278,107.405664 L160.452657,107.404941 L160.399451,111.02042 L160.222574,111.208674 L160.199805,115.14357 L160.077573,122.639384 L160.073978,122.648417 L159.845332,122.671903 L159.587686,122.729716 L159.385164,122.808848 L159.24975,122.904962 L159.19175,123.012639 L159.17713,125.161475 L159.199659,125.266622 L159.299841,125.368517 L159.403139,125.421994 L159.399305,125.977722 L159.416801,126.060828 L159.498049,126.141043 L159.63538,126.211503 L159.775348,126.254863 L159.732207,128.013461 L159.54862,128.070913 L159.347536,128.14065 L159.21356,128.22484 L159.156039,128.318786 L159.153403,128.681924 L159.175213,128.777677 L159.274436,128.869455 L159.444363,128.950031 L159.706563,129.03386 L159.477437,135.863018 L159.212601,141.90592 L159.027575,148.475281 L158.337803,148.472752 L157.885545,148.54574 L157.974702,150.896922 L158.108678,151.346418 L158.569804,151.404231 L158.749318,151.40676 L158.741409,152.434025 L158.606953,155.998556 L158.155653,160.525674 L157.744618,163.129787 L157.127466,166.005983 L156.219833,169.306742 L154.146682,174.872325 L153.852845,174.873409 L153.620365,175.078284 L153.075354,175.076477 L153.009684,175.076477 L152.781517,175.075032 L152.230994,175.073225 L152.15334,175.072503 L151.319047,175.069974 L151.240914,175.069974 L150.9164,175.073225 L151.240914,175.074671 L151.240914,175.114779 L150.393918,175.116224 L150.410934,174.615419 L151.022574,174.614335 L151.045343,174.611083 L151.053252,174.611083 L151.07626,174.607108 L151.07626,174.525448 L150.414529,174.52328 L150.458149,173.307762 L149.732666,173.296922 L149.541649,168.5624 L149.484847,168.547586 L149.487962,166.833069 L149.648781,145.806489 L149.563698,145.731694 L149.572327,145.039745 L149.529665,145.048055 L149.145952,145.174882 L148.872248,145.251485 L148.872248,145.152841 L147.904698,145.038299 L147.858921,145.063954 L147.860119,144.960252 L146.645708,144.63397 L146.644749,144.866667 L147.404745,145.070458 L146.576922,145.061425 L146.576922,145.033241 L145.714587,145.016619 L145.441362,144.959529 L143.917057,144.930984 L143.691047,144.979041 L143.127102,144.968201 L143.127102,144.996385 L142.204849,144.971092 L143.241425,144.771637 L143.242384,144.537133 L141.875541,144.804157 L141.874583,144.953748 L141.824971,144.960252 L141.590333,144.953748 L141.588656,144.99241 L141.56373,144.995662 L141.563011,145.038299 L141.348026,144.911833 L140.361781,144.988436 L139.998441,144.866667 L139.957217,144.857272 L139.960812,145.545247 L139.845531,145.625462 L139.847448,171.36091 L139.843853,172.051052 L138.743525,172.037683 L138.76845,167.981741 L136.509314,167.806857 L136.505719,137.753864 L136.630588,137.753864 L136.632505,137.75278 L136.632505,137.739411 L136.644728,137.739411 L136.646646,137.737243 L136.646646,137.709782 L136.674208,137.709782 L136.676605,137.707252 L136.676605,137.69316 L136.689786,137.69316 L136.691704,137.692076 L136.691704,131.6452 L135.605756,131.6452 L135.605756,124.090128 L135.492871,124.090128 L135.495987,124.038819 L135.350986,123.63196 L135.111555,123.482369 L134.919339,123.677488 L134.887463,124.084347 L134.887463,119.938434 L134.883868,119.39174 L134.788479,119.392462 L134.796148,119.302129 L134.650189,118.894548 L134.410518,118.751099 L134.218062,118.954529 L134.185467,119.385236 L134.187385,119.392462 L134.184748,119.392462 L134.184748,115.961985 L134.169409,115.533446 L133.473885,115.534891 L133.474844,109.609422 L133.461422,109.356852 L133.051345,109.356852 L133.051345,108.315134 L133.157999,108.252985 L133.285504,107.824085 L133.25171,107.707014 L133.275438,107.626798 L133.146495,107.195008 L133.051345,107.140447 L133.051345,107.004586 L132.988072,106.972066 L132.920485,106.966285 L132.915452,106.03369 L132.90946,105.032441 L132.905386,104.031915 L132.900353,103.032112 L132.894841,102.031948 L132.889807,101.031422 L132.884774,100.030896 L132.882378,99.9835614 L132.729947,100.007048 L132.723955,101.00649 L132.718922,102.006293 L132.71341,103.005735 L132.707897,104.005538 L132.702864,105.00498 L132.698311,106.004783 L132.692319,106.973512 L132.635037,107.004586 L132.635037,107.132859 L132.526706,107.195369 L132.397524,107.627521 L132.434673,107.752903 L132.413582,107.824085 L132.541806,108.252985 L132.635037,108.306824 L132.634079,109.356852 L132.206027,109.356852 L132.205068,115.534891 L131.47599,115.535614 L131.475031,119.393185 L131.174245,119.393185 L131.313014,119.277198 L131.461849,118.850104 L131.431411,118.449388 L131.238956,118.309914 L130.999764,118.511537 L130.851887,118.937185 L130.881846,119.33754 L130.957103,119.393185 L130.738523,119.393185 L130.737565,124.090489 L130.423596,124.090489 L130.571473,123.969443 L130.721267,123.541266 L130.691308,123.133685 L130.499811,122.985539 L130.259661,123.182826 L130.110826,123.609196 L130.140784,124.015694 L130.234975,124.090489 L129.993387,124.090489 L129.990511,131.645923 L128.906001,131.645923 L128.903844,137.692076 L128.910794,137.693883 L128.960167,137.693883 L128.960167,137.708698 L128.966158,137.709782 L129.014811,137.709782 L129.014811,137.72279 L129.021762,137.725319 L129.068977,137.725319 L129.068977,137.737243 L129.072812,137.738688 L129.058432,174.704668 L128.877241,175.784325 L128.876282,177.576166 L127.091454,177.576166 L127.101041,138.862067 L125.236882,137.869129 L116.437133,138.03245 L115.414458,139.066941 L115.468623,177.576166 L113.493737,177.576166 L113.493737,177.45223 L113.725738,177.389358 L113.866185,177.283849 L113.864028,177.088008 L113.78949,176.981054 L113.512191,176.88241 L113.489183,176.877713 L113.307513,148.553328 L113.252868,145.973786 L113.137586,143.512759 L112.964544,141.213609 L112.740452,139.113553 L112.381665,139.111746 L111.133939,138.571556 L111.078815,138.389084 L108.361428,138.380774 L108.313494,138.545179 L106.912619,139.094041 L106.553592,139.091873 L106.39517,141.193736 L106.275095,143.493247 L106.19864,145.954996 L106.167003,148.536707 L106.131292,174.864015 L105.335586,174.847394 L105.331751,174.507381 L105.30299,174.440173 L104.802798,174.430417 L104.806872,174.836554 L104.205059,174.824268 L104.058141,174.444871 L104.053108,173.979115 L103.86952,173.51372 L103.559146,173.507939 L103.54189,173.461327 L103.536138,173.461327 L102.494769,173.374247 L102.322925,173.360155 L102.155874,173.347508 L102.151321,172.77263 L102.14437,172.754564 L101.970849,172.743001 L101.876179,172.736859 L101.87522,172.611115 L101.674136,171.983122 L97.5297504,171.909772 L97.5297504,171.928199 L95.9946595,171.900016 L96.000891,173.183102 L95.1517377,173.167565 L94.8670089,173.294754 L94.8679675,173.505771 L93.4752411,142.673749 L93.6233576,142.656405 L93.7407962,142.638338 L93.8251603,142.618826 L93.8750118,142.596785 L93.8867557,142.575828 L94.5324286,139.213642 L94.4988747,139.169921 L94.4116345,139.127284 L94.3629814,139.113553 L94.3620227,138.873629 L94.4226594,138.507962 L94.4217007,138.117725 L94.3891055,138.072197 L94.3064191,138.028837 L94.1736415,137.986561 L93.9950868,137.948622 L93.7748295,137.915379 L93.7223416,137.908875 L93.7182672,136.74575 L93.6945398,136.711785 L93.6398948,136.679988 L93.5507373,136.649275 L93.4313813,136.621091 L93.3132237,136.601579 L93.171818,129.976935 L93.213281,129.967179 L93.3721827,129.905752 L93.4620592,129.837461 L93.4761998,129.766278 L93.5198198,129.360865 L93.7223416,129.309556 L93.8455323,129.247046 L93.8656647,129.179838 L93.9303757,128.886076 L93.8637473,128.597372 L93.7798625,128.530887 L93.6159278,128.480662 L93.6664983,128.013461 L93.5919607,127.925658 L93.4313813,127.846526 L93.2600168,127.799553 L93.2585788,127.496758 L93.2063305,127.434609 L93.1195697,127.391249 L93.1090242,123.661589 L93.0785861,123.598356 L92.9966187,123.540543 L92.8669568,123.493209 L92.700865,123.457437 L92.5108062,123.436841 L92.5388476,123.424556 L92.5616163,123.405044 L92.5680875,123.385171 L92.5505915,116.403531 L92.5405253,116.378599 L92.5148806,116.356197 L92.5129632,116.355113 L92.5208723,116.350416 L92.5431617,116.326929 L92.5496328,116.300913 L92.5479551,115.26028 L92.5378889,115.23318 L92.5120045,115.209693 L92.483244,115.197047 L92.483244,115.182232 L92.5175169,115.162359 L92.5405253,115.136704 L92.5469964,115.11105 L92.5455584,114.070778 L92.5345336,114.045123 L92.5088888,114.019469 L92.480368,114.005377 L92.480368,113.995982 L92.5148806,113.976109 L92.5378889,113.949009 L92.5445997,113.92227 L92.541484,112.883805 L92.5318972,112.857066 L92.5060127,112.832135 L92.4772523,112.816597 L92.4772523,112.811539 L92.5120045,112.790581 L92.5345336,112.764204 L92.541484,112.735298 L92.5388476,111.699 L92.5290211,111.670094 L92.5033764,111.645162 L92.4743762,111.629986 L92.4743762,111.629263 L92.5088888,111.607583 L92.5318972,111.580484 L92.5388476,111.551216 L92.5354922,110.516002 L92.5259054,110.486734 L92.500021,110.460357 L92.4753349,110.446265 L92.5060127,110.426392 L92.5290211,110.397485 L92.5354922,110.368579 L92.5326162,109.334449 L92.5230294,109.304098 L92.5060127,109.287476 L92.5496328,109.258208 L92.5776743,109.222798 L92.5863024,109.185942 L92.5831867,108.153258 L92.5712032,108.115318 L92.5395666,108.081353 L92.4909135,108.052808 L92.4276404,108.031489 L92.3554995,108.018843 L92.2778462,108.016675 L92.201631,108.024624 L92.1309281,108.041607 L92.0712501,108.067622 L92.0249936,108.09942 L91.9979109,108.135914 L91.9900017,108.173492 L91.9928778,109.205093 L92.005101,109.24231 L92.0369772,109.275552 L92.0722088,109.295787 L92.0520764,109.319996 L92.046564,109.351071 L92.0482417,110.384116 L92.0583079,110.413384 L92.084432,110.440484 L92.1093577,110.45313 L92.0777212,110.474449 L92.0547128,110.502633 L92.0482417,110.531901 L92.0511177,111.566392 L92.0616633,111.595298 L92.087308,111.620953 L92.1148702,111.635767 L92.0803576,111.65817 L92.0573492,111.686354 L92.0511177,111.714537 L92.0537541,112.751558 L92.0635806,112.778296 L92.0901841,112.803228 L92.1182255,112.818043 L92.1182255,112.823101 L92.0822749,112.844781 L92.0607046,112.871158 L92.0537541,112.899342 L92.0556715,113.937085 L92.066217,113.963101 L92.0923411,113.988394 L92.1208619,114.002125 L92.1208619,114.011881 L92.0853907,114.033199 L92.0626219,114.058492 L92.0566302,114.085592 L92.0583079,115.125142 L92.0693327,115.150796 L92.0952172,115.173921 L92.1232586,115.188013 L92.1232586,115.201383 L92.0882667,115.22234 L92.0652583,115.247994 L92.0597459,115.273649 L92.0616633,116.314644 L92.0722088,116.340298 L92.0978535,116.362701 L92.0992916,116.363062 L92.0911428,116.368482 L92.0686137,116.391969 L92.0616633,116.417623 L92.0767625,123.395288 L92.087308,123.415884 L92.1139115,123.434312 L92.1369199,123.4419 L92.0968949,123.445152 L91.9077947,123.474781 L91.748893,123.517418 L91.6290576,123.571618 L91.5578754,123.63196 L91.5387018,123.696277 L91.5454126,127.4104 L91.4821395,127.438583 L91.4138333,127.501455 L91.4078416,127.566495 L91.4088003,127.694045 L90.9586987,127.784739 L90.9742773,128.035141 L90.9287398,128.061518 L90.81945,128.193765 L90.7554579,128.48283 L90.7487471,128.620136 L90.8136979,128.907756 L90.9110042,129.034583 L91.0368313,129.111185 L91.0598397,129.509011 L91.1693692,129.545505 L91.2026835,129.843242 L91.273626,129.910088 L91.4164697,129.971515 L91.5051479,129.993556 L91.395858,136.61531 L91.3376181,136.624343 L91.2065182,136.652527 L91.1044185,136.683601 L91.034914,136.716482 L90.9968063,136.750448 L90.9932113,136.78369 L90.9951286,137.926942 L90.8117805,137.953319 L90.6152506,137.99162 L90.4623406,138.033896 L90.3585632,138.077978 L90.3053563,138.123506 L90.3015216,138.169395 L90.3024803,138.55891 L90.3640757,138.920964 L90.3655137,139.133065 L90.2562238,139.175341 L90.2001409,139.219423 L90.1975045,139.262783 L90.8532436,142.599314 L90.8860785,142.620633 L90.955583,142.640506 L91.0598397,142.659657 L91.194295,142.676278 L91.2580474,142.681336 L91.2240141,143.974541 L90.0673633,174.124009 L89.9228419,174.120757 L89.2901112,174.432585 L84.9597409,174.344782 L84.9630963,173.137936 L84.5906481,172.80515 L84.5916067,172.382754 L84.7306157,172.384561 L84.7298967,172.0478 L84.7128801,167.250046 L85.0268487,167.142369 L85.0258901,166.780676 L85.1066591,166.743098 L85.12056,166.737317 L85.1907835,166.628917 L85.1898248,166.538223 L85.1756842,166.538223 L85.1728082,165.948531 L85.1462048,165.949254 L85.1411717,165.949254 L85.1251137,165.950338 L85.1076178,165.954312 L85.0915598,165.960093 L85.0764606,165.968404 L85.060882,165.978521 L85.0570472,165.981051 L85.0429067,165.992613 L85.0304438,166.007428 L85.0182206,166.022242 L85.0067164,166.039948 L84.9973692,166.059098 L84.9896998,166.078971 L84.9817906,166.10029 L84.9762782,166.109323 L84.9702865,166.11944 L84.9657327,166.13028 L84.9630963,166.142566 L84.9606996,166.155212 L84.9597409,166.167498 L84.9606996,166.179783 L84.9630963,166.191707 L84.9666914,166.203269 L84.9702865,166.214832 L84.9762782,166.224949 L84.9827493,166.233982 L84.9717245,166.250604 L84.9597409,166.266502 L84.9467987,166.281317 L84.9340962,166.295409 L84.9197159,166.307694 L84.9055754,166.319618 L84.8923935,166.329374 L84.8784926,166.336962 L84.8633933,166.345272 L84.8478147,166.351776 L84.8312774,166.357558 L84.8152195,166.361171 L84.7545828,166.361894 L84.7545828,166.351776 L84.7536241,166.34997 L84.7531448,166.34744 L84.7521861,166.345272 L84.7512274,166.344188 L84.7502687,166.341659 L84.7481117,166.340214 L84.747153,166.33913 L84.7454753,166.338407 L84.743558,166.32829 L84.7394836,166.31745 L84.7346902,166.307694 L84.7284587,166.300467 L84.7215083,166.294686 L84.7135991,166.291073 L84.704971,166.289266 L84.6965825,166.289266 L84.688913,166.291434 L84.6810039,166.295409 L84.6788469,166.296854 L84.6718964,166.302997 L84.6659047,166.31203 L84.6572765,166.325038 L84.6572765,166.406337 L82.1611061,165.543117 L82.1644615,165.505539 L82.1654202,165.494699 L82.1414531,165.487111 L82.1438498,165.48422 L82.1474449,165.478439 L82.1505606,165.473019 L82.1534367,165.465793 L82.155354,165.458927 L82.156073,165.452423 L82.1579904,165.435802 L82.1579904,165.428575 L82.1570317,165.420987 L82.155354,165.41087 L82.1515193,165.401114 L82.1464862,165.393526 L82.1404944,165.387745 L82.1345027,165.384493 L82.1268332,165.383048 L82.1198828,165.384493 L82.1134117,165.388468 L82.1064612,165.393526 L82.1019075,165.401114 L82.0978331,165.41087 L82.0959157,165.42171 L82.094238,165.424962 L82.0908826,165.427491 L82.0887256,165.429298 L82.0858495,165.430743 L82.0827338,165.431466 L82.0798578,165.431827 L82.0772214,165.431466 L82.073147,165.430743 L82.0702709,165.429298 L82.0671552,165.427491 L82.0652378,165.424962 L82.0628411,165.42171 L81.9739233,165.289102 L81.9739233,165.234179 L81.9710473,165.206718 L81.9669729,165.180341 L81.9619398,165.153964 L81.9540306,165.129755 L81.9439645,165.105907 L81.934857,165.081698 L81.9223941,165.061102 L81.9099312,165.041951 L81.8957907,165.024246 L81.8806914,165.008709 L81.8782947,165.00365 L81.8756583,164.998591 L81.8727823,164.993894 L81.8687079,164.989558 L81.8651128,164.985583 L81.8622368,164.982693 L81.8586417,164.979802 L81.854807,164.976912 L81.8507326,164.974744 L81.8461788,164.973298 L81.8421044,164.972214 L81.8375507,164.97113 L81.8339556,164.972214 L81.8286829,164.973298 L81.8250878,164.975466 L81.8214927,164.976912 L81.8174183,164.979802 L81.8140629,164.983054 L81.8099885,164.986306 L81.8071125,164.990281 L81.8039968,164.995339 L81.800162,164.999675 L81.7975257,165.005095 L81.795129,165.009431 L81.780509,165.024607 L81.7668478,165.044119 L81.7534263,165.06327 L81.7419221,165.084227 L81.7318559,165.107352 L81.7232277,165.1312 L81.7153186,165.156493 L81.7098062,165.182148 L81.7057318,165.209609 L81.7028557,165.236709 L81.7018971,165.263447 L81.7028557,165.290908 L81.6144172,165.425685 L81.6124999,165.428575 L81.6098635,165.431466 L81.6065081,165.433273 L81.6036321,165.434357 L81.6009957,165.435079 L81.59788,165.435079 L81.5950039,165.435079 L81.5914089,165.434357 L81.5885328,165.433273 L81.5858964,165.431466 L81.5839791,165.428575 L81.5808634,165.425685 L81.578946,165.415929 L81.5753509,165.406173 L81.5703178,165.397862 L81.5648054,165.392804 L81.557855,165.388829 L81.5504252,165.387745 L81.5437144,165.388829 L81.5372433,165.392804 L81.5312515,165.398585 L81.5266978,165.406896 L81.5223837,165.41629 L81.520706,165.426046 L81.5197473,165.433634 L81.5197473,165.441583 L81.520706,165.449171 L81.5216647,165.456759 L81.5233424,165.464709 L81.5257391,165.470851 L81.5286151,165.478078 L81.5312515,165.48422 L81.5343672,165.48964 L81.5362846,165.491447 L81.5123175,165.499758 L81.5142349,165.51132 L81.5197473,165.547092 L79.0691144,166.436328 L79.0691144,166.356112 L79.0612052,166.342743 L79.0544945,166.335878 L79.0487424,166.329374 L79.0451473,166.32829 L79.0384365,166.323593 L79.0295687,166.321786 L79.0221389,166.321786 L79.0144694,166.323593 L79.0065603,166.327567 L79.0003289,166.333349 L78.9945768,166.340214 L78.9895437,166.34997 L78.9859486,166.360087 L78.9837916,166.370927 L78.9818742,166.37165 L78.9809155,166.372734 L78.9799569,166.374179 L78.9780395,166.375624 L78.9773205,166.376708 L78.9768411,166.379238 L78.9754031,166.381767 L78.9744444,166.383574 L78.9744444,166.385742 L78.9744444,166.388271 L78.9744444,166.391523 L78.9754031,166.393329 L78.9162045,166.394052 L78.9011052,166.390077 L78.8860059,166.385019 L78.8697083,166.378515 L78.8550884,166.370927 L78.8435842,166.364062 L78.8294437,166.353583 L78.8150634,166.342382 L78.8018815,166.330097 L78.7894187,166.316727 L78.7771954,166.302635 L78.7656913,166.287098 L78.7549061,166.269754 L78.7606582,166.261082 L78.7664103,166.251326 L78.770245,166.240848 L78.7733607,166.228201 L78.7752781,166.216639 L78.7762368,166.204715 L78.7752781,166.191707 L78.7733607,166.180144 L78.770245,166.168582 L78.7664103,166.157742 L78.7606582,166.147624 L78.7549061,166.139314 L78.7486746,166.118718 L78.7407655,166.098845 L78.7311787,166.081139 L78.7206332,166.063073 L78.709129,166.048981 L78.6957074,166.035612 L78.6825255,166.022242 L78.6784511,166.020074 L78.668385,166.013932 L78.6674263,166.013932 L78.6645502,166.01068 L78.649451,166.003453 L78.6329137,165.997672 L78.6178144,165.994781 L78.6017565,165.993336 L78.5967234,165.993336 L78.570839,165.993336 L78.57012,166.570743 L78.5552604,166.570743 L78.5552604,166.659631 L78.6238062,166.764778 L78.6374674,166.771643 L78.7151207,166.804886 L78.7151207,167.162965 L79.0204612,167.260163 L79.0163868,171.688637 L78.0032987,171.00825 L78.0682495,161.201724 L78.0682495,161.198111 L78.0644148,161.194136 L78.0567453,161.190884 L78.0452411,161.187632 L78.0299022,161.18438 L78.0116872,161.181851 L77.9908359,161.179322 L77.9671085,161.177515 L77.9414637,161.17607 L77.9143809,161.174986 L77.8849014,161.174986 L77.8451161,161.174986 L77.8487111,160.642745 L77.8487111,160.639854 L77.8451161,160.636964 L77.8372069,160.632628 L77.8261821,160.629376 L77.8106035,160.626846 L77.7935869,160.62504 L77.7715372,160.621788 L77.7485288,160.61962 L77.722884,160.618536 L77.6953219,160.617813 L77.6663217,160.617452 L76.082338,160.60336 L75.9394943,160.60336 L75.7966506,160.60336 L75.6533275,160.604444 L75.5097647,160.605889 L75.3645243,160.608418 L75.2204822,160.610948 L75.0762004,160.615284 L74.9918363,160.618536 L74.9096293,160.62504 L74.8300586,160.630821 L74.754802,160.636964 L74.6831405,160.64419 L74.6174707,160.651778 L74.5573134,160.661534 L74.5041065,160.670929 L74.456412,160.680685 L74.416387,160.690441 L74.3837918,160.70128 L74.3591057,160.711398 L73.9324918,160.931087 L73.8888718,165.694876 L67.7173511,165.626585 L60.3776755,165.545285 L60.3467579,167.113101 L60.3973285,167.216803 L60.6775035,167.219332 L60.7127351,167.294851 L60.7031483,167.845158 L60.7503634,167.941995 L61.1038777,167.945247 L61.099324,167.949583 L61.0516295,168.004144 L61.0084888,168.065931 L60.9725382,168.133861 L60.9409016,168.205766 L60.9162155,168.282007 L60.8982402,168.361861 L60.886736,168.442438 L60.8826616,168.52446 L60.8826616,168.53783 L55.7997253,171.841841 L55.7589813,173.063141 L56.4238279,173.393397 L56.4034558,174.046684 L56.9990375,174.301422 L56.9789052,174.981086 L57.9301582,175.311343 L58.6925507,175.575114 L61.001059,175.580173 L60.9675051,177.576166 L55.7589813,177.576166 L55.7589813,193.416561 L318.437594,193.416561 L318.437594,177.576166 L310.47094,177.576166 Z" id="Fill-3" fill="#FFFFFF"></path>
                <path d="M0,984 L372,984 L372,192.442465 L0,192.442465 L0,984 Z" id="Fill-4" fill="#FFFFFF"></path>
            </g>
        </g>
    </g>
</svg>